<svg xmlns="http://www.w3.org/2000/svg" viewBox="0 0 65.08 70.3"><defs><style>.angular{fill:none;stroke:black;stroke-miterlimit:10;}</style></defs><polygon class="angular" points="32.54 0.71 32.54 0.71 32.54 0.71 0.54 12.12 5.42 54.43 32.54 69.45 32.54 69.45 32.54 69.45 59.66 54.43 64.54 12.12 32.54 0.71"/><polygon class="angular" points="32.54 0.71 32.54 8.34 32.54 8.3 32.54 43.12 32.54 43.12 32.54 69.45 32.54 69.45 59.66 54.43 64.54 12.12 32.54 0.71"/><path class="angular" d="M36.74,9.78l-20,44.85H24.2l4-10h17l4,10h7.46L36.74,9.78Zm5.85,28.63H30.9l5.84-14.06Z" transform="translate(-4.2 -1.47)"/></svg>
