<svg xmlns="http://www.w3.org/2000/svg" viewBox="0 0 64 64"><style>.bootstrap{fill:none;stroke:#000;stroke-miterlimit:10}</style><path class="bootstrap" d="M63 52.7C63 58.3 58.3 63 52.7 63H11.3C5.7 63 1 58.3 1 52.7V11.3C1 5.7 5.7 1 11.3 1h41.3C58.3 1 63 5.7 63 11.3v41.4z"/><path class="bootstrap" d="M17.4 13.9h18.1c3.3 0 6 .8 8.1 2.3 2 1.5 3 3.8 3 7 0 1.9-.5 3.5-1.4 4.8-.9 1.3-2.2 2.4-4 3.1v.1c2.3.5 4 1.6 5.2 3.3 1.2 1.7 1.8 3.8 1.8 6.4 0 1.4-.3 2.8-.8 4.1-.5 1.3-1.4 2.4-2.5 3.3-1.1.9-2.5 1.7-4.3 2.2-1.7.5-3.8.8-6.2.8h-17V13.9zm6.5 15.6h10.7c1.6 0 2.9-.4 3.9-1.3s1.6-2.2 1.6-3.8c0-1.9-.5-3.2-1.4-4s-2.3-1.2-4.1-1.2H23.9v10.3zm0 16.4h11.6c2 0 3.5-.5 4.6-1.5 1.1-1 1.7-2.5 1.7-4.4 0-1.9-.5-3.3-1.7-4.3-1.1-1-2.6-1.5-4.6-1.5H23.9v11.7z"/></svg>
