<svg xmlns="http://www.w3.org/2000/svg" viewBox="0 0 64 90.6"><style>.css3{fill:none;stroke:#000;stroke-miterlimit:10}</style><g id="g3013"><path id="polygon2989" class="css3" d="M63 18.7L57.4 82 32 89.1 6.6 82 1 18.7z"/><path id="polygon2991" class="css3" d="M52.5 78l4.8-54.1H32v59.8z"/><path id="polygon2993" class="css3" d="M13.9 47.4l.7 7.8H32v-7.8z"/><path id="polygon2995" class="css3" d="M32 31.7H12.5l.7 7.7H32z"/><path id="polygon2997" class="css3" d="M32 75.6v-8.1.1l-8.7-2.4-.5-6.2H15l1.1 12.2L32 75.6z"/><path id="path2999" class="css3" d="M15.6 1.5H25v3.9h-5.5v3.9H25v3.9h-9.4V1.5z"/><path id="path3001" class="css3" d="M26.9 1.5h9.4V5h-5.5v.7h5.5v7.9h-9.4V9.9h5.5v-.7h-5.5V1.5z"/><path id="path3003" class="css3" d="M38.2 1.5h9.4V5h-5.5v.7h5.5v7.9h-9.4V9.9h5.5v-.7h-5.5V1.5z"/><path id="polygon3005" class="css3" d="M41.5 55.2l-.9 10-8.6 2.4v8l15.9-4.4.1-1.3 1.8-20.4.2-2.1 1.4-15.7H32v7.7h10.9l-.7 8H32v7.8z"/></g></svg>
