<svg xmlns="http://www.w3.org/2000/svg" viewBox="0 0 255.43 344.36"><defs><style>.grunt{fill:none;stroke:black;stroke-miterlimit:10;}</style></defs><path class="grunt" d="M51.18,197.05c.59,9.81-.59,33.44-2.29,50.83,8.34,3.23,17.89,4.29,26.59,4.54a75,75,0,0,0,3.68-8.81c.44-1.31,13.11-34.21,17.68-41.7C93.18,228,85.1,251.28,81.08,262a57.37,57.37,0,0,1,7.85-.5l39.11,0h.1l39.1,0a57.37,57.37,0,0,1,7.85.5c-4-10.68-12.1-33.91-15.75-60,4.55,7.49,17.22,40.39,17.67,41.7a75,75,0,0,0,3.68,8.81c8.69-.25,18.25-1.31,26.59-4.54-1.7-17.39-2.88-41-2.29-50.83.7-11.7,7-19.55,12.78-22.9,1.82-1.05,3.72-2.08,5.64-3.11,10-5.38,20.24-10.95,20.24-20.45,0-7.43-2.89-9.75-6-12.21l-.32-.27c-.48-.39-1-.79-1.47-1.21.62,4.83,1.28,8.94,1.8,10,0,0-8.13-10.08-10.53-29.7-1-7.73.73-23,3.41-28.84a92.9,92.9,0,0,0,.22,9.64,7.63,7.63,0,0,1,.88-1.45c2.15-2.69,7.92-11.73,6.26-17.81a8.14,8.14,0,0,0-4.47-5.26,22.41,22.41,0,0,0-10.11-1.94c-8.21,0-17.34,2.5-22,4-16.81,5.33-37.1,20.69-42.92,25.27l-.28.22-3.72,2.59,2.32-3.9c.14-.22,12.8-21,35.61-31.15-1.34-1.94-4.93-5.45-14.46-10.1-14.37-7-31.12-10.56-49.8-10.57s-35.43,3.56-49.8,10.57c-9.53,4.65-13.11,8.16-14.46,10.09C86.64,78.67,99.3,99.48,99.44,99.7l2.32,3.9L98,101l-.28-.22c-5.82-4.58-26.1-19.94-42.92-25.27-4.7-1.49-13.82-4-22-4a22.41,22.41,0,0,0-10.11,1.94,8.14,8.14,0,0,0-4.47,5.26c-1.66,6.08,4.11,15.12,6.27,17.81A7.83,7.83,0,0,1,25.35,98a90,90,0,0,0,.22-9.63c2.69,5.87,4.37,21.11,3.43,28.84-2.41,19.62-10.54,29.7-10.54,29.7.52-1,1.18-5.15,1.8-10-.49.42-1,.82-1.46,1.21l-.33.27c-3.06,2.46-5.95,4.78-5.95,12.21,0,9.5,10.29,15.07,20.25,20.45,1.91,1,3.81,2.06,5.63,3.11C44.21,177.5,50.48,185.35,51.18,197.05ZM164.3,137.4c6.52-7.49,27.39-28.15,55.7-21.28a65.4,65.4,0,0,0-9.07,2.76l.08,0c2.75,1.21,4.28,4.61,4.66,7.93.77,6.71-3.49,12.82-3.49,12.82a32.16,32.16,0,0,0-2.7-11.09c-.29,6.9-2.13,15.77-8.56,22.88-4.61,5.1-23.84,15.63-36.74,4.07a51.66,51.66,0,0,0-2,5.69c-1.95,6.87,1.78,16.91,1.78,16.91s-10.08-11.42-9.3-21.78c-7.24-.32-14.36-5.64-14.15-13.08C140.52,143.26,153.14,150.24,164.3,137.4Zm-36.21-18a35.65,35.65,0,0,0,18.29-5.55s-9.71,11.84-18.25,11.93H128c-8.54-.09-18.25-11.93-18.25-11.93A35.71,35.71,0,0,0,128.09,119.36Zm-91.92-3.24c28.31-6.87,49.18,13.79,55.7,21.28,11.16,12.84,23.79,5.86,23.79,5.86.2,7.44-6.92,12.76-14.16,13.08.78,10.36-9.3,21.78-9.3,21.78s3.73-10,1.78-16.91a51.88,51.88,0,0,0-2-5.7c-12.91,11.56-32.13,1-36.75-4.07-6.42-7.1-8.26-16-8.55-22.87A32.09,32.09,0,0,0,44,139.66s-4.27-6.11-3.5-12.82c.38-3.32,1.92-6.72,4.66-7.93l.08,0A65.4,65.4,0,0,0,36.17,116.12Z" transform="translate(-0.37 0.83)"/><path class="grunt" d="M60,57.24c-1-3.22-3.7-10.81-9.07-15.08a21.86,21.86,0,0,0-13-4.69c.54.69,1.06,1.41,1.54,2.16,2.21,3.51,2.57,7.79,2.93,11.93.36,4.31.71,8.4,2.93,11.38,2.79.52,5.4,1.15,7.68,1.78A43.36,43.36,0,0,1,60,57.24Z" transform="translate(-0.37 0.83)"/><path class="grunt" d="M77.19,46.78c-4.12-6-13.34-17.68-25.29-21.53a38.45,38.45,0,0,0-11.83-1.84,43.12,43.12,0,0,0-16.54,3.36A45.2,45.2,0,0,1,30,30.35a36.08,36.08,0,0,1,6.15-.53,33.36,33.36,0,0,1,19.27,6c8.25,5.8,12.07,11.33,13.83,15,1.47-.84,3-1.68,4.73-2.5C75.05,47.75,76.11,47.26,77.19,46.78Z" transform="translate(-0.37 0.83)"/><path class="grunt" d="M60.64,287.35c-3.62.88-6.8,1.55-6.47,3a55.63,55.63,0,0,0,7.5.61C61.25,289.74,60.91,288.53,60.64,287.35Z" transform="translate(-0.37 0.83)"/><path class="grunt" d="M186.9,50.77c1.76-3.64,5.58-9.18,13.84-15a33.29,33.29,0,0,1,19.26-6,36.12,36.12,0,0,1,6.16.53,45.2,45.2,0,0,1,6.49-3.58,43.17,43.17,0,0,0-16.54-3.36,38.52,38.52,0,0,0-11.84,1.84c-12,3.85-21.17,15.52-25.28,21.54,1.07.47,2.13,1,3.18,1.48C183.86,49.09,185.43,49.93,186.9,50.77Z" transform="translate(-0.37 0.83)"/><path class="grunt" d="M213.87,51.57c.35-4.14.71-8.43,2.93-11.93.48-.76,1-1.48,1.53-2.17a21.89,21.89,0,0,0-13.05,4.69c-5.37,4.27-8.11,11.87-9.07,15.09a43,43,0,0,1,7,7.47c2.28-.63,4.89-1.26,7.69-1.78C213.15,60,213.5,55.87,213.87,51.57Z" transform="translate(-0.37 0.83)"/><path class="grunt" d="M195.53,287.35a35.37,35.37,0,0,1-1,3.64,54.06,54.06,0,0,0,7.5-.62C202.33,288.9,199.15,288.23,195.53,287.35Z" transform="translate(-0.37 0.83)"/><path class="grunt" d="M182.07,317.29a46,46,0,0,0,20.68-17.1,117.52,117.52,0,0,1-12.45,1.6A95,95,0,0,1,182.07,317.29Z" transform="translate(-0.37 0.83)"/><path class="grunt" d="M184.39,274.93c-1.94-2.21-6.38-4.84-16.51-4.84H157.3l-29.21,0-29.22,0H88.29c-10.13,0-14.57,2.63-16.51,4.84-2.83,3.23-3,8.43-.57,15.46,4.42,12.66,16.3,43.31,56.88,43.36s52.45-30.7,56.87-43.36C187.4,283.36,187.21,278.16,184.39,274.93ZM113.1,286.62a48.52,48.52,0,0,1-8.72,13,10,10,0,0,1-7.39,3,12.31,12.31,0,0,1-7.88-2.81c-1.56-1.35-6.85-6.21-9.18-12.16-.87-2.22-.68-4,.59-5.28.87-.88,2.67-1.93,6.34-1.93h19.71c2.79,0,4.79.61,5.94,1.78A4,4,0,0,1,113.1,286.62Zm63.15,1c-2.34,5.95-7.62,10.81-9.19,12.16a12.32,12.32,0,0,1-7.87,2.81,9.93,9.93,0,0,1-7.39-3,48.65,48.65,0,0,1-8.73-13,4,4,0,0,1,.59-4.46c1.15-1.17,3.15-1.78,5.94-1.78h19.72c3.66,0,5.47,1.05,6.33,1.93C176.92,283.6,177.12,285.38,176.25,287.6Z" transform="translate(-0.37 0.83)"/><path class="grunt" d="M65.87,301.79a118.05,118.05,0,0,1-12.46-1.6,46,46,0,0,0,20.69,17.1A95,95,0,0,1,65.87,301.79Z" transform="translate(-0.37 0.83)"/><path class="grunt" d="M64.16,149.34c10.91,8.1,21.59,3.35,25.44,1.11v0h0c-5-7.61-17-17.45-30.09-24.8C57.51,131.7,57.2,144.16,64.16,149.34Z" transform="translate(-0.37 0.83)"/><path class="grunt" d="M40.5,126.84c-.77,6.71,3.5,12.82,3.5,12.82a32.09,32.09,0,0,1,2.69-11.09c.29,6.9,2.13,15.77,8.55,22.87,4.62,5.11,23.84,15.63,36.75,4.07a51.88,51.88,0,0,1,2,5.7c2,6.87-1.78,16.91-1.78,16.91s10.08-11.42,9.3-21.78c7.24-.32,14.36-5.64,14.16-13.08,0,0-12.63,7-23.79-5.86-6.52-7.49-27.39-28.15-55.7-21.28a65.4,65.4,0,0,1,9.07,2.76l-.08,0C42.42,120.12,40.88,123.52,40.5,126.84Zm49.09,23.59h0v0c-3.85,2.24-14.53,7-25.44-1.11-7-5.18-6.65-17.64-4.66-23.71C72.58,133,84.59,142.82,89.59,150.43Z" transform="translate(-0.37 0.83)"/><path class="grunt" d="M106.57,280.38H86.86c-3.67,0-5.47,1.05-6.34,1.93-1.27,1.28-1.46,3.06-.59,5.28,2.33,5.95,7.62,10.81,9.18,12.16A12.31,12.31,0,0,0,97,302.57a10,10,0,0,0,7.39-3,48.52,48.52,0,0,0,8.72-13,4,4,0,0,0-.59-4.46C111.36,281,109.36,280.38,106.57,280.38Z" transform="translate(-0.37 0.83)"/><path class="grunt" d="M23,213.66l-.12.12a2,2,0,0,0,0,.24A2.64,2.64,0,0,1,23,213.66Z" transform="translate(-0.37 0.83)"/><path class="grunt" d="M60.64,287.35c-1.64-7.26-.38-13.2,3.78-17.7.29-.31.61-.63,1-.95,1.23-1.62,2.89-3.92,4.7-6.73-18.22-.8-42.54-7.39-49.85-30.45-3.34,3.35-5.62,26.19,2.51,39.57,6.7,11,18.82,17.35,31.44,19.29C53.84,288.9,57,288.23,60.64,287.35Z" transform="translate(-0.37 0.83)"/><path class="grunt" d="M192,149.34c7-5.18,6.66-17.64,4.67-23.71-13.08,7.35-25.09,17.19-30.09,24.8v0C170.41,152.68,181.1,157.45,192,149.34Z" transform="translate(-0.37 0.83)"/><path class="grunt" d="M154.67,156.34c-.78,10.36,9.3,21.78,9.3,21.78s-3.73-10-1.78-16.91a51.66,51.66,0,0,1,2-5.69c12.9,11.56,32.13,1,36.74-4.07,6.43-7.11,8.27-16,8.56-22.88a32.16,32.16,0,0,1,2.7,11.09s4.26-6.11,3.49-12.82c-.38-3.32-1.91-6.72-4.66-7.93l-.08,0a65.4,65.4,0,0,1,9.07-2.76c-28.31-6.87-49.18,13.79-55.7,21.28-11.16,12.84-23.78,5.86-23.78,5.86C140.31,150.7,147.43,156,154.67,156.34Zm42-30.71c2,6.07,2.31,18.53-4.67,23.71-10.9,8.11-21.59,3.34-25.43,1.11v0C171.58,142.82,183.59,133,196.67,125.63Z" transform="translate(-0.37 0.83)"/><path class="grunt" d="M169.32,280.39H149.6c-2.79,0-4.79.61-5.94,1.78a4,4,0,0,0-.59,4.46,48.65,48.65,0,0,0,8.73,13,9.93,9.93,0,0,0,7.39,3,12.32,12.32,0,0,0,7.87-2.81c1.57-1.35,6.85-6.21,9.19-12.16.87-2.22.67-4-.6-5.28C174.79,281.44,173,280.39,169.32,280.39Z" transform="translate(-0.37 0.83)"/><path class="grunt" d="M128,125.74h.09c8.54-.09,18.25-11.93,18.25-11.93a35.65,35.65,0,0,1-18.29,5.55,35.71,35.71,0,0,1-18.3-5.55S119.5,125.65,128,125.74Z" transform="translate(-0.37 0.83)"/><path class="grunt" d="M186.1,262c1.8,2.8,3.46,5.1,4.69,6.71.34.33.67.65,1,1,4.16,4.5,5.42,10.44,3.78,17.7,3.62.88,6.8,1.55,6.47,3,12.62-1.93,24.73-8.25,31.44-19.28,8.13-13.38,5.85-36.22,2.5-39.57C228.64,254.58,204.32,261.17,186.1,262Z" transform="translate(-0.37 0.83)"/><path class="grunt" d="M233.13,213.66a3.16,3.16,0,0,1,.08.37,2.17,2.17,0,0,0,0-.25Z" transform="translate(-0.37 0.83)"/><path class="grunt" d="M233.44,212.57c-.06.41-.12.81-.19,1.21a2.17,2.17,0,0,1,0,.25c-2,11.38-8.82,21.49-16.24,27.86-2.06-15.23-2.49-37.19-2.48-41.81,0-9.84,6.36-16.43,8.16-17.47s3.59-2,5.58-3.05c12.06-6.46,27.07-14.49,27.07-29.31,0-10.83-6.22-15.52-10.34-18.63-.53-.39-1-.76-1.45-1.11a10.23,10.23,0,0,1-2.89-2.92c-2.92-6.56-2.39-23-1.12-25.2.37-.44,11.21-14,7.88-26.24a17.91,17.91,0,0,0-9.45-11.39,31.23,31.23,0,0,0-13.09-3,23.93,23.93,0,0,0-.62-3.94,18.36,18.36,0,0,1-.61-5.4c.27-3.12.51-6,1.45-7.54,5.66-8.93,19.33-11.79,19.46-11.82l8.22-1.61-5.45-6.36a45.78,45.78,0,0,0-31-11.71A52.35,52.35,0,0,0,200.14,16c-16.24,5.23-28.72,20.43-33.07,26.31-2.1-.66-4.24-1.25-6.41-1.79-2.81-10.59,6-25.78,6-25.78s-9.08-2-22.55,10.21c-1.74-4.35-5.41-13.74-1.18-24.95-19.73,7-24.73,17.61-26.21,27.26-5.07-3.63-4.51-15.45-4.79-18.48-5,.61-19.54,14.67-18.89,32.38q-2,.54-3.93,1.14C84.75,36.43,72.27,21.23,56,16A52.62,52.62,0,0,0,39.9,13.37a45.81,45.81,0,0,0-31,11.7L3.44,31.44l8.21,1.61c.14,0,13.8,2.89,19.46,11.82.94,1.48,1.19,4.42,1.45,7.53A18.1,18.1,0,0,1,32,57.81a23.93,23.93,0,0,0-.62,3.94,31.23,31.23,0,0,0-13.09,3A17.91,17.91,0,0,0,8.79,76.15C5.46,88.36,16.3,102,16.67,102.39c1.27,2.25,1.8,18.64-1.12,25.2a10.23,10.23,0,0,1-2.89,2.92c-.44.35-.93.72-1.45,1.11C7.1,134.73.87,139.42.87,150.25c0,14.82,15,22.85,27.08,29.31,2,1.06,3.87,2.07,5.57,3.05s8.16,7.63,8.17,17.47c0,4.62-.43,26.59-2.48,41.81C31.78,235.52,24.92,225.41,23,214a2,2,0,0,1,0-.24c-.07-.4-.13-.8-.19-1.21,0,0-19.58,15.12-13.83,47.46,3.52,19.78,15.52,30.87,31.47,36.67,5.89,12.78,19.68,30.62,45.08,33.24C95.13,337.87,108.51,343,128,343h.09c19.52,0,32.91-5.16,42.59-13.09,25.4-2.62,39.19-20.46,45.08-33.24,15.95-5.8,27.95-16.89,31.47-36.67C253,227.69,233.44,212.57,233.44,212.57Zm0,58.52c-6.71,11-18.82,17.35-31.44,19.28a54.06,54.06,0,0,1-7.5.62,35.37,35.37,0,0,0,1-3.64c1.64-7.26.38-13.2-3.78-17.7-.29-.32-.62-.64-1-1-1.23-1.61-2.89-3.91-4.69-6.71,18.22-.8,42.54-7.39,49.84-30.45C239.29,234.87,241.57,257.71,233.44,271.09ZM204.27,25.25a38.52,38.52,0,0,1,11.84-1.84,43.17,43.17,0,0,1,16.54,3.36,45.2,45.2,0,0,0-6.49,3.58,36.12,36.12,0,0,0-6.16-.53,33.29,33.29,0,0,0-19.26,6c-8.26,5.8-12.08,11.34-13.84,15-1.47-.84-3-1.68-4.73-2.5-1-.51-2.11-1-3.18-1.48C183.1,40.77,192.32,29.1,204.27,25.25Zm-1,39.47a43,43,0,0,0-7-7.47c1-3.22,3.7-10.82,9.07-15.09a21.89,21.89,0,0,1,13.05-4.69c-.53.69-1.05,1.41-1.53,2.17-2.22,3.5-2.58,7.79-2.93,11.93-.37,4.3-.72,8.39-2.93,11.37C208.14,63.46,205.53,64.09,203.25,64.72Zm-158-1.78c-2.22-3-2.57-7.07-2.93-11.38-.36-4.14-.72-8.42-2.93-11.93-.48-.75-1-1.47-1.54-2.16a21.86,21.86,0,0,1,13,4.69C56.26,46.43,59,54,60,57.24a43.36,43.36,0,0,0-7,7.48C50.64,64.09,48,63.46,45.24,62.94Zm24-12.17c-1.76-3.65-5.58-9.18-13.83-15a33.36,33.36,0,0,0-19.27-6,36.08,36.08,0,0,0-6.15.53,45.2,45.2,0,0,0-6.49-3.58,43.12,43.12,0,0,1,16.54-3.36A38.45,38.45,0,0,1,51.9,25.25c12,3.85,21.17,15.51,25.29,21.53-1.08.48-2.14,1-3.19,1.49C72.31,49.09,70.74,49.93,69.27,50.77ZM38.4,174.15c-1.82-1.05-3.72-2.08-5.63-3.11-10-5.38-20.25-10.95-20.25-20.45,0-7.43,2.89-9.75,5.95-12.21l.33-.27c.48-.39,1-.79,1.46-1.21-.62,4.84-1.28,8.94-1.8,10,0,0,8.13-10.08,10.54-29.7.94-7.73-.74-23-3.43-28.84A90,90,0,0,1,25.35,98a7.83,7.83,0,0,0-.86-1.44c-2.16-2.69-7.93-11.73-6.27-17.81a8.14,8.14,0,0,1,4.47-5.26A22.41,22.41,0,0,1,32.8,71.53c8.22,0,17.34,2.5,22,4,16.82,5.33,37.1,20.69,42.92,25.27L98,101l3.72,2.59-2.32-3.9c-.14-.22-12.8-21-35.62-31.16,1.35-1.93,4.93-5.44,14.46-10.09,14.37-7,31.13-10.56,49.8-10.57s35.43,3.56,49.8,10.57c9.53,4.65,13.12,8.16,14.46,10.1-22.81,10.13-35.47,30.93-35.61,31.15l-2.32,3.9,3.72-2.59.28-.22c5.82-4.58,26.11-19.94,42.92-25.27,4.7-1.49,13.83-4,22-4a22.41,22.41,0,0,1,10.11,1.94A8.14,8.14,0,0,1,238,78.73c1.66,6.08-4.11,15.12-6.26,17.81a7.63,7.63,0,0,0-.88,1.45,92.9,92.9,0,0,1-.22-9.64c-2.68,5.87-4.36,21.11-3.41,28.84,2.4,19.62,10.53,29.7,10.53,29.7-.52-1-1.18-5.16-1.8-10,.49.42,1,.82,1.47,1.21l.32.27c3.06,2.46,6,4.78,6,12.21,0,9.5-10.29,15.07-20.24,20.45-1.92,1-3.82,2.06-5.64,3.11-5.81,3.35-12.08,11.2-12.78,22.9-.59,9.81.59,33.44,2.29,50.83-8.34,3.23-17.9,4.29-26.59,4.54a75,75,0,0,1-3.68-8.81c-.45-1.31-13.12-34.21-17.67-41.7,3.65,26.13,11.74,49.36,15.75,60a57.37,57.37,0,0,0-7.85-.5l-39.1,0H128l-39.11,0a57.37,57.37,0,0,0-7.85.5c4-10.67,12.1-33.91,15.76-60-4.57,7.49-17.24,40.39-17.68,41.7a75,75,0,0,1-3.68,8.81c-8.7-.25-18.25-1.31-26.59-4.54,1.7-17.39,2.88-41,2.29-50.83C50.48,185.35,44.21,177.5,38.4,174.15ZM54.17,290.38c-12.62-1.94-24.74-8.26-31.44-19.29-8.13-13.38-5.85-36.22-2.51-39.57,7.31,23.06,31.63,29.65,49.85,30.45-1.81,2.81-3.47,5.11-4.7,6.73-.34.32-.66.64-1,.95-4.16,4.5-5.42,10.44-3.78,17.7.27,1.18.61,2.39,1,3.64A55.63,55.63,0,0,1,54.17,290.38Zm-.76,9.81a118.05,118.05,0,0,0,12.46,1.6,95,95,0,0,0,8.23,15.5A46,46,0,0,1,53.41,300.19Zm74.68,33.56c-40.58-.05-52.46-30.7-56.88-43.36-2.44-7-2.26-12.23.57-15.46,1.94-2.21,6.38-4.84,16.51-4.84H98.87l29.22,0,29.21,0h10.58c10.13,0,14.57,2.63,16.51,4.84,2.82,3.23,3,8.43.57,15.46C180.54,303.05,168.66,333.7,128.09,333.75Zm54-16.46a95,95,0,0,0,8.23-15.5,117.52,117.52,0,0,0,12.45-1.6A46,46,0,0,1,182.07,317.29Z" transform="translate(-0.37 0.83)"/></svg>
