<svg xmlns="http://www.w3.org/2000/svg" viewBox="0 0 81.03 178.84"><defs><style>.gulp{fill:none;stroke:black;stroke-miterlimit:10;}</style></defs><path class="gulp" d="M81.1,187.7l1.7-28.4,4.7-8s-10.7,4.4-28.6,4.4-28.5-4.3-28.5-4.3l5.3,8.8,1.9,27.6c0,3,9.8,5.4,21.8,5.4,11.9-.2,21.7-2.6,21.7-5.5M75.7,55l3.6-14.1L99.1,20l-5.2-4.4-21,22.2L68.7,54.7c-3.1-.1-6.3-.2-9.4-.2-22.1,0-40,2.5-40,5.6s17.9,5.6,40,5.6,40-2.5,40-5.6c.1-2.2-9.6-4.2-23.6-5.1" transform="translate(-18.8 -14.86)"/><path class="gulp" d="M73.6,63a15.1,15.1,0,0,1-3.1.2c-2.3,0-3.9,0-4.5-.6a1.08,1.08,0,0,1-.3-.7c0-.4.3-.6.7-.8l.3.5c-.2.1-.2.1-.2.2,0,.3,2.3.5,4.1.5s3.9-.2,3.9-.5c0-.1-.2-.2-.4-.2l.3-.5c.5.1.9.4.9.9.1.7-1,.9-1.7,1" transform="translate(-18.8 -14.86)"/><path class="gulp" d="M99.1,20.1c.5-.6-.3-2-1.7-3.3s-3-1.8-3.5-1.2.3,2,1.7,3.3,3,1.8,3.5,1.2m-19,98.2c-.5-4.5,9.9-11.1,7.2-11.3-5.7.3-8.6,6.7-11.4,13.4-1.1,2.4-4.7,12.9-7,11.6s3.1-9.9,4.6-15c-1.8,1.3-8.2,6.3-9.9,1.6-2.7,2.3-8.4,3.5-7.7-2.5-1.4,2.5-4.6,6-8.4,4.6-5-1.9,2.9-17.9,4.9-17.1s-.4,4.5-1,5.9c-1.4,3.1-2.9,7-1.9,7.8,1.8,1.4,6.7-5.2,6.8-5.3.9-1.2,3.5-9.2,5.6-8.2s-5.3,11.4-2.5,13.5c.6.4,2.8-.3,4.2-1.8.9-1,.6-3.1,3.6-10.2s5.6-16,7.7-15.3.4,5.2-.4,6.9c-3.4,8-9.4,21.1-6.6,20.1s4.3-1.1,7-4.3,2.6-8.5,4.5-8.4,1.5,1.8,1.1,3.1c1.8-2.1,8.6-6.4,10.2-2.1,1.9,5.1-9.7,12.5-6.8,12.1s7.4-3.3,9.3-5.9l5.4-48.3s-5.4,4.5-39.8,4.5-39.2-4.4-39.2-4.4l4.6,44c2.4-6.9,8.2-20.8,17.3-20.4,4.1.2,9.6,8.2,4.9,8.4-2,.1-2.2-4-4.6-4.6-1.7-.4-4.1,1-5.6,2.5-3.1,3-9.7,14.8-8.8,20.7,1.1,7.5,10.4-2.6,11.9-5.6,1.1-2.1,1.9-8.4,4.3-7.7s-.2,7.1-2,12.9c-2,6.4-3,13.2-5.5,12.4s1.6-9.1,1.4-10.5c-2.3,2.1-6.6,7.6-12.1,4.9l2.8,27.3s7.5,6,30.3,6S89,147.7,89,147.7L92.5,116c-2.6,2.9-11.8,7.9-12.4,2.3" transform="translate(-18.8 -14.86)"/></svg>
