<svg xmlns="http://www.w3.org/2000/svg" viewBox="0 0 57 122.5"><style>.gulp{fill:none;stroke:#000;stroke-miterlimit:10}</style><path class="gulp" d="M43.1 117.2l1.1-19 3.2-5.4s-7.2 2.9-19.2 2.9-19.1-2.8-19.1-2.8l3.6 5.9 1.3 18.5c0 2 6.6 3.6 14.6 3.6 7.9-.2 14.5-1.8 14.5-3.7m-3.6-89l2.4-9.5 13.3-14-3.5-2.9-14.1 14.9L34.8 28c-2.1-.1-4.2-.1-6.3-.1-14.8 0-26.8 1.7-26.8 3.8s12 3.8 26.8 3.8 26.8-1.7 26.8-3.8c.1-1.5-6.5-2.9-15.8-3.5"/><path class="gulp" d="M38.1 33.6c-.7.1-1.4.2-2.1.1-1.5 0-2.6 0-3-.4-.1-.1-.2-.3-.2-.5 0-.3.2-.4.5-.5l.2.3-.1.1c0 .2 1.5.3 2.7.3s2.6-.1 2.6-.3c0-.1-.1-.1-.3-.1l.2-.3c.3.1.6.3.6.6.1.5-.7.6-1.1.7"/><path class="gulp" d="M55.2 4.8c.3-.4-.2-1.3-1.1-2.2s-2-1.2-2.3-.8c-.3.4.2 1.3 1.1 2.2s1.9 1.2 2.3.8M42.4 70.7c-.3-3 6.6-7.4 4.8-7.6-3.8.2-5.8 4.5-7.6 9-.7 1.6-3.2 8.6-4.7 7.8-1.5-.9 2.1-6.7 3.1-10.1-1.2.9-5.5 4.2-6.6 1.1-1.8 1.5-5.6 2.3-5.2-1.7-.9 1.7-3.1 4-5.6 3.1-3.4-1.3 1.9-12 3.3-11.5 1.3.5-.3 3-.7 4-.9 2.1-1.9 4.7-1.3 5.2 1.2.9 4.5-3.5 4.6-3.6.6-.8 2.3-6.2 3.8-5.5 1.4.7-3.6 7.6-1.7 9 .4.3 1.9-.2 2.8-1.2.6-.7.4-2.1 2.4-6.8s3.8-10.7 5.2-10.3c1.4.5.3 3.5-.3 4.6-2.3 5.4-6.3 14.1-4.4 13.5 1.9-.7 2.9-.7 4.7-2.9s1.7-5.7 3-5.6c1.3.1 1 1.2.7 2.1 1.2-1.4 5.8-4.3 6.8-1.4 1.3 3.4-6.5 8.4-4.6 8.1 1.9-.3 5-2.2 6.2-4l3.6-32.4s-3.6 3-26.7 3-26.1-2.8-26.1-2.8L5 63.3c1.6-4.6 5.5-13.9 11.6-13.7 2.7.1 6.4 5.5 3.3 5.6-1.3.1-1.5-2.7-3.1-3.1-1.1-.3-2.7.7-3.8 1.7-2.1 2-6.5 9.9-5.9 13.9.7 5 7-1.7 8-3.8.7-1.4 1.3-5.6 2.9-5.2s-.1 4.8-1.3 8.6c-1.3 4.3-2 8.8-3.7 8.3s1.1-6.1.9-7c-1.5 1.4-4.4 5.1-8.1 3.3l1.9 18.3s5 4 20.3 4 20.4-4 20.4-4l2.3-21.3c-1.7 2.2-7.9 5.5-8.3 1.8"/></svg>
