<svg xmlns="http://www.w3.org/2000/svg" viewBox="0 0 64 64" ><defs><style>.javascript{fill:none;stroke:black;stroke-miterlimit:10;}</style></defs><g><path class="javascript" d="M1,1h62v62H1V1z"/><path class="javascript" d="M17.3,52.8l4.7-2.9c0.9,1.6,1.7,3,3.7,3c1.9,0,3.1-0.7,3.1-3.7V29.5h5.8v19.9c0,6-3.5,8.8-8.7,8.8 C21.4,58.1,18.7,55.7,17.3,52.8 M37.9,52.2l4.7-2.7c1.2,2,2.9,3.5,5.7,3.5c2.4,0,4-1.2,4-2.9c0-2-1.6-2.7-4.2-3.9l-1.5-0.6 c-4.2-1.8-7-4-7-8.8c0-4.4,3.3-7.7,8.5-7.7c3.7,0,6.4,1.3,8.3,4.7l-4.5,2.9c-1-1.8-2.1-2.5-3.7-2.5c-1.7,0-2.8,1.1-2.8,2.5 c0,1.7,1.1,2.5,3.6,3.5l1.5,0.6c5,2.1,7.7,4.3,7.7,9.2c0,5.2-4.1,8.1-9.7,8.1C43.1,58.1,39.6,55.6,37.9,52.2"/></g></svg>
