<svg xmlns="http://www.w3.org/2000/svg" viewBox="0 0 524.6 119.2"><defs><style>.jquery{fill:none;stroke:black;stroke-miterlimit:10;}</style></defs><path class="jquery" d="M223.9,46.17h0l-3.35,11.88,3.35-11.88Z" transform="translate(0.5 0.5)"/><path class="jquery" d="M241.14,72l-3.69,0Z" transform="translate(0.5 0.5)"/><path class="jquery" d="M240.19,89.7h0l-22.13.08,22.13-.08Z" transform="translate(0.5 0.5)"/><path class="jquery" d="M244.83,72l-3.7,0Z" transform="translate(0.5 0.5)"/><path class="jquery" d="M242.13,88.19,246,73.49,242.13,88.2h0Z" transform="translate(0.5 0.5)"/><path class="jquery" d="M323.61,20.49l-7.18,33.76Z" transform="translate(0.5 0.5)"/><path class="jquery" d="M305.15,20.49,299.7,45.71l5.45-25.22Z" transform="translate(0.5 0.5)"/><path class="jquery" d="M322.38,19H307a2,2,0,0,0-1.88,1.52l-5.45,25.22-5.45,25.22a2,2,0,0,1-1.88,1.51H281.49c-10.75,0-9.51-7.43-7.3-17.62l.06-.31.24-1.28c0-.09,0-.17.05-.25l.49-2.61.53-2.8c.16-.85.4-2.08.56-2.86L278.6,32.6l2.48-12.11A1.22,1.22,0,0,0,279.84,19H264.07a2,2,0,0,0-1.87,1.52l-3.38,16.08-3.39,16.08s0,0,0,0l-.31,1.49C251.2,72,252.24,89,273.45,89.51l.62,0h33.3A2,2,0,0,0,309.25,88l7.18-33.76,7.18-33.76A1.22,1.22,0,0,0,322.38,19Z" transform="translate(0.5 0.5)"/><path class="jquery" d="M383.64,72.62a1.22,1.22,0,0,1,1.24,1.52l-1.49,7.29" transform="translate(0.5 0.5)"/><path class="jquery" d="M381.9,88.72l1.49-7.29-1.49,7.29Z" transform="translate(0.5 0.5)"/><path class="jquery" d="M380,90.25h0c-4.52,0-18.1.14-28.31.14,12.42,0,28.3-.14,28.3-.14Z" transform="translate(0.5 0.5)"/><path class="jquery" d="M342.57,63.23c0-.79.9-2.17,1.75-2.17l-1.92,0c-.86,8.69.17,2.2.17,2.2Z" transform="translate(0.5 0.5)"/><path class="jquery" d="M353.13,90.39h0Z" transform="translate(0.5 0.5)"/><path class="jquery" d="M383.64,72.62a1.22,1.22,0,0,1,1.24,1.52l-1.49,7.29-.24,1.19" transform="translate(0.5 0.5)"/><path class="jquery" d="M360.4,90.37h0Z" transform="translate(0.5 0.5)"/><path class="jquery" d="M356.63,90.38h0Z" transform="translate(0.5 0.5)"/><path class="jquery" d="M355.48,90.39h0Z" transform="translate(0.5 0.5)"/><path class="jquery" d="M354.31,90.39h0Z" transform="translate(0.5 0.5)"/><path class="jquery" d="M356.41,90.38h0Z" transform="translate(0.5 0.5)"/><path class="jquery" d="M360.34,90.37h0Z" transform="translate(0.5 0.5)"/><path class="jquery" d="M380,90.25h0c-3.31,0-11.49.09-19.64.12C368.55,90.34,376.73,90.28,380,90.25Z" transform="translate(0.5 0.5)"/><path class="jquery" d="M381.9,88.72l1.25-6.1-1.25,6.11Z" transform="translate(0.5 0.5)"/><path class="jquery" d="M355.12,90.39h0Z" transform="translate(0.5 0.5)"/><path class="jquery" d="M352.83,90.39h0Z" transform="translate(0.5 0.5)"/><path class="jquery" d="M354,90.39h0Z" transform="translate(0.5 0.5)"/><path class="jquery" d="M129.36,63.42l2.39-10.58L129,64.93,126.4,77.24l2.29-10.79c.18-.84.48-2.2.67-3Z" transform="translate(0.5 0.5)"/><path class="jquery" d="M157.91,18.79H141.05a2,2,0,0,0-1.9,1.51l-1.6,7.06L136,34.42a1.19,1.19,0,0,0,1.21,1.51h17A2,2,0,0,0,156,34.42l1.54-7.06,1.55-7h0a1.2,1.2,0,0,0-1.22-1.52Z" transform="translate(0.5 0.5)"/><path class="jquery" d="M154.24,42.27h0l-5,22.88Z" transform="translate(0.5 0.5)"/><path class="jquery" d="M105.25,118.09s8.5.11,13.9.11c-4.1,0-10.88-.08-13.91-.11Z" transform="translate(0.5 0.5)"/><path class="jquery" d="M134.13,42.27l-2.39,10.57Z" transform="translate(0.5 0.5)"/><path class="jquery" d="M153,40.76H136a2,2,0,0,0-1.89,1.51l-2.39,10.57-2.38,10.58c-.19.83-.49,2.2-.67,3L126.4,77.24,124.11,88c-.18.83-.55,2.17-.82,3,0,0-3.18,9.45-8.51,9.34h-.67l-4.62-.09h0a2,2,0,0,0-1.91,1.48l-1.76,7.41-1.76,7.41a1.19,1.19,0,0,0,1.18,1.53c3,0,9.81.11,13.91.11,13.34,0,20.37-7.39,24.87-28.65l5.28-24.4,4.94-22.88A1.2,1.2,0,0,0,153,40.76Z" transform="translate(0.5 0.5)"/><path class="jquery" d="M394.47,89.53A1.22,1.22,0,0,1,393.24,88L406,28.12" transform="translate(0.5 0.5)"/><path class="jquery" d="M412.24,88l5.17-25.56Z" transform="translate(0.5 0.5)"/><path class="jquery" d="M393.43,88.77a6.76,6.76,0,0,1,.14-2.28l6.07-28.43-6.4,30a1.21,1.21,0,0,0,1.23,1.52H396c-.85,0-2.49-.35-2.59-.76Z" transform="translate(0.5 0.5)"/><path class="jquery" d="M411.23,89.18a8,8,0,0,1-2.4.34h1.56A2,2,0,0,0,412.24,88l.31-1.51c-.17.83-.85,2.5-1.32,2.69Z" transform="translate(0.5 0.5)"/><path class="jquery" d="M414.83,75.22l2.28-11.28v0l-2.28,11.26Z" transform="translate(0.5 0.5)"/><path class="jquery" d="M465.28,32.13,466,35a1.17,1.17,0,0,1-1.19,1.51" transform="translate(0.5 0.5)"/><path class="jquery" d="M412.55,86.49l2.28-11.27Z" transform="translate(0.5 0.5)"/><path class="jquery" d="M464.58,29.15l.7,3Z" transform="translate(0.5 0.5)"/><path class="jquery" d="M417.11,63.94c.17-.83.45-2.19.63-3l2.44-11.42-2.77,12.93-.3,1.5Z" transform="translate(0.5 0.5)"/><path class="jquery" d="M406.24,27.14c-.17.8-.39,1.82-.53,2.49l-6.07,28.43L406,28.12l.21-1Z" transform="translate(0.5 0.5)"/><path class="jquery" d="M466,35l-.7-2.91-.7-3-.35-1.51c-1.38-5.37-5.44-8.46-14.24-8.46l-13.7,0H409.48a2,2,0,0,0-1.87,1.52h0l-.63,3-.74,3.51-.21,1-6.39,29.94-6.07,28.43a6.76,6.76,0,0,0-.14,2.28c.11.41,1.74.76,2.59.76h12.81a7.92,7.92,0,0,0,2.4-.35c.46-.18,1.15-1.86,1.32-2.69l2.28-11.27L417.11,64v0l.3-1.5,2.77-12.93,2.43-11.43a2,2,0,0,1,1.88-1.51l40.3,0A1.17,1.17,0,0,0,466,35Z" transform="translate(0.5 0.5)"/><path class="jquery" d="M517.86,8.72l-3.1,0h-12.9A3.29,3.29,0,0,0,499.43,10L470.91,51.8c-.48.71-1,.6-1.22-.23l-2.1-9.2a2,2,0,0,0-1.9-1.51H447.36a1.11,1.11,0,0,0-1.13,1.49l8.22,28.78a6.86,6.86,0,0,1,0,3l-3.58,13.93a1.15,1.15,0,0,0,1.16,1.51H470.2a2.11,2.11,0,0,0,1.93-1.51l3.58-13.93A9.38,9.38,0,0,1,477,71.38L523.34,9.92c.51-.68.23-1.23-.62-1.23l-4.86,0Z" transform="translate(0.5 0.5)"/><path class="jquery" d="M372.18,44.77h0a1.87,1.87,0,0,1-1.81,1.6H347.12a1,1,0,0,1-1.1-1.22s0,0,0,0h0a.17.17,0,0,0,0-.07s0-.17.11-.4c2.22-5.9,6.74-9.78,15.24-9.78,9.57,0,11.44,4.68,10.79,9.93Zm-6.82-26.83c-29.84,0-36.91,18.11-40.88,36.39-4,18.64-3.62,36.06,27.25,36.06h8.66c8.16,0,16.34-.09,19.65-.12a2,2,0,0,0,1.85-1.52l1.25-6.11.25-1.19,1.49-7.29a1.22,1.22,0,0,0-1.24-1.52H355.88c-11.05,0-14.32-2.93-13.12-11.56h44.41a1.83,1.83,0,0,0,1.61-1.14,1.9,1.9,0,0,0,.11-.39h0c6.59-24.85,4.7-41.59-23.53-41.59Z" transform="translate(0.5 0.5)"/><path class="jquery" d="M224.32,44.68l-.42,1.49h0l-3.35,11.88L217.2,69.92a2.17,2.17,0,0,1-2,1.49H197.49c-13.45,0-16.73-10.52-13.45-26,3.27-15.88,9.69-25.74,22.93-26.74,18.1-1.37,21.72,11.36,17.35,26.05ZM236.48,70.5s8.36-20.31,10.26-32C249.33,22.77,241.47,0,211.11,0c-30.18,0-43.29,21.74-48.29,45.37-5,23.8,1.55,44.67,31.56,44.5l23.68-.09,22.13-.08a2.11,2.11,0,0,0,1.94-1.5L246,73.49A1.16,1.16,0,0,0,244.83,72l-3.69,0-3.7,0a1,1,0,0,1-1.05-1.1,1.56,1.56,0,0,1,.09-.34Z" transform="translate(0.5 0.5)"/><path class="jquery" d="M385.92,56.91a1,1,0,1,1-1-1A1,1,0,0,1,385.92,56.91Z" transform="translate(0.5 0.5)"/><path class="jquery" d="M6,30.51c-8.34,12-7.3,27.57-.93,40.29.15.31.31.61.46.91l.3.57c.06.12.13.23.19.33l.33.6.61,1,.34.57c.23.37.47.74.71,1.1l.3.47c.33.49.67,1,1,1.47l0,0c.06.08.12.15.17.23l.93,1.24.36.45c.28.35.56.7.86,1.05.1.14.21.27.32.4l1.2,1.37,0,0,0,0c.4.44.81.86,1.22,1.29l.39.39,1,1,.39.38c.44.42.88.82,1.34,1.22h0l.23.2c.4.35.8.69,1.21,1l.5.4,1,.79.54.41,1.13.82.42.29.11.08c.36.25.73.49,1.1.73l.48.32c.56.35,1.14.71,1.72,1l.47.27c.43.24.86.49,1.3.72.23.13.47.25.71.37l.93.48.21.11.38.18c.48.23,1,.46,1.47.68l.31.14c.56.24,1.13.48,1.71.71l.41.16q.8.32,1.62.6l.2.07c.59.21,1.19.4,1.8.59l.43.13c.62.18,1.23.4,1.86.52,40.31,7.35,52-24.22,52-24.22C82,87.38,64.58,90.76,48,87c-.63-.14-1.23-.34-1.85-.52l-.46-.14c-.59-.18-1.18-.38-1.77-.58l-.25-.09c-.52-.18-1.05-.38-1.56-.58l-.44-.17-1.7-.7-.33-.15-1.43-.67-.41-.19-1.11-.57L36,82.26c-.45-.24-.89-.49-1.33-.74l-.44-.25c-.59-.35-1.16-.7-1.73-1.06L32,79.9l-1.23-.81-.39-.28L29.26,78l-.52-.39c-.35-.27-.7-.54-1-.82l-.47-.37c-.44-.36-.87-.72-1.3-1.1l-.14-.12c-.47-.4-.92-.82-1.37-1.24L24,73.56c-.33-.32-.66-.64-1-1l-.39-.38c-.41-.42-.81-.85-1.21-1.28l-.06-.06c-.41-.46-.82-.93-1.22-1.4l-.32-.38c-.3-.36-.59-.72-.88-1.09l-.33-.4c-.34-.45-.68-.9-1-1.36-9.19-12.52-12.48-29.8-5.15-44" transform="translate(0.5 0.5)"/><path class="jquery" d="M31.85,20.42c-6,8.67-5.7,20.28-1,29.46a39.4,39.4,0,0,0,2.67,4.45,21.06,21.06,0,0,0,3.1,3.87c.44.48.89.95,1.35,1.4l.36.36c.45.43.91.86,1.38,1.28l.06,0h0c.53.46,1.07.9,1.62,1.34l.36.28c.55.43,1.11.84,1.69,1.24l0,0c.25.18.51.34.77.51s.24.17.37.24c.41.27.82.52,1.25.77l.17.1,1.11.62.39.2c.26.14.52.28.78.4l.11.06q.79.39,1.62.75l.35.15,1.33.53.56.21c.41.15.81.29,1.22.42l.55.18a13.46,13.46,0,0,0,1.75.51C87,75,94.14,51,94.14,51c-6.48,9.33-19,13.78-32.4,10.31-.6-.16-1.18-.33-1.77-.51l-.53-.17-1.23-.43L57.65,60l-1.32-.53L56,59.34c-.55-.24-1.09-.49-1.62-.76-.28-.13-.55-.27-.82-.41l-.47-.24-1-.59-.24-.13c-.43-.25-.84-.51-1.25-.77l-.38-.25-.81-.53q-.85-.6-1.68-1.23l-.38-.3A37.56,37.56,0,0,1,34.58,36c-2.31-7.43-1.81-15.77,2.2-22.55" transform="translate(0.5 0.5)"/><path class="jquery" d="M53.61,12.88a18.13,18.13,0,0,0-1.43,17.5A24.66,24.66,0,0,0,66.32,43.6l.78.26.34.11a8.62,8.62,0,0,0,1.1.32c17.19,3.32,21.85-8.82,23.09-10.6C87.55,39.56,80.69,41,72.27,38.93a20.08,20.08,0,0,1-2-.63,24.17,24.17,0,0,1-2.42-1,25.18,25.18,0,0,1-4.24-2.59C56,29,51.36,18.09,56.27,9.21" transform="translate(0.5 0.5)"/></svg>
