<svg xmlns="http://www.w3.org/2000/svg" viewBox="0 0 157.9 38"><style>.jquery{fill:none;stroke:#000;stroke-linecap:round;stroke-linejoin:round;stroke-miterlimit:10}</style><path class="jquery" d="M67.7 15l-1 3.5 1-3.5zM72.8 22.7h-1.1 1.1zM72.6 27.9H66h6.6zM73.9 22.7h-1.1 1.1zM73.1 27.5l1.1-4.4-1.1 4.4zM97.3 7.4l-2.1 10 2.1-10zM91.8 7.4l-1.6 7.5 1.6-7.5z"/><path class="jquery" d="M96.9 7h-4.6c-.3 0-.5.2-.6.5L90.1 15l-1.6 7.5c-.1.3-.3.4-.6.4h-3.2c-3.2 0-2.8-2.2-2.2-5.2v-.1l.1-.4v-.1l.1-.8.2-.8c0-.3.1-.6.2-.8l.7-3.6.7-3.6c0-.2-.1-.4-.3-.4h-4.8c-.3 0-.5.2-.6.5l-1 4.8-1 4.8.2.2c-1.2 5.3-.9 10.3 5.4 10.5h10.1c.3 0 .5-.2.6-.4l2.1-10 2.1-10c0-.3-.1-.5-.4-.5.1 0 0 0 0 0zM115 22.9c.2 0 .4.1.4.3v.1l-.4 2.2M114.5 27.6l.4-2.2-.4 2.2zM114 28.1h-8.4 8.4zM102.9 20.1c0-.2.3-.6.5-.6h-.6c-.2 2.5.1.6.1.6zM106 28.1z"/><path class="jquery" d="M115 22.9c.2 0 .4.1.4.3v.1l-.4 2.2-.1.4M108.2 28.1zM107 28.1zM106.7 28.1zM106.3 28.1zM107 28.1zM108.1 28.1zM114 28.1h-5.8 5.8zM114.5 27.6l.4-1.8-.4 1.8zM106.6 28.1zM105.9 28.1zM106.3 28.1zM39.7 20.1l.7-3.1-.8 3.6-.8 3.6.7-3.2c.1-.2.2-.6.2-.9zM48.2 6.9h-5c-.3 0-.5.2-.6.4l-.5 2.1-.5 2.1c-.1.2.1.4.2.4h5.1c.3 0 .5-.2.5-.4l.5-2.1.5-2.1c.1-.2-.1-.4-.2-.4.1 0 0 0 0 0zM47.1 13.9l-1.5 6.8 1.5-6.8zM32.6 36.3h4.1-4.1zM41.2 13.9l-.8 3.1.8-3.1z"/><path class="jquery" d="M46.7 13.4h-5c-.3 0-.5.2-.6.4l-.7 3.2-.7 3.1c-.1.2-.1.7-.2.9l-.7 3.2-.7 3.2c-.1.2-.2.6-.2.9 0 0-.9 2.8-2.5 2.8H33.8c-.3 0-.5.2-.6.4l-.5 2.2-.5 2.2c-.1.2.1.4.2.4H36.6c4 0 6-2.2 7.4-8.5l1.6-7.2 1.5-6.8c0-.2-.1-.4-.3-.4h-.1zM118.2 27.9c-.2 0-.4-.1-.4-.3v-.1l3.8-17.7M123.5 27.4l1.5-7.6-1.5 7.6z"/><path class="jquery" d="M117.9 27.6v-.7l1.8-8.4-1.9 8.9c-.1.2.1.4.3.4h.6c-.3.1-.7 0-.8-.2zM123.2 27.8c-.2.1-.5.1-.7.1h.5c.3 0 .5-.2.5-.5l.1-.4c-.1.2-.3.7-.4.8zM124.3 23.6l.7-3.3-.7 3.3zM139.2 10.9l.2.8c.1.2 0 .4-.2.4h-.1M123.6 27l.7-3.3-.7 3.3zM139 10l.2.9-.2-.9zM124.9 20.3c.1-.2.1-.6.2-.9l.7-3.4-.8 3.8-.1.5zM121.7 9.4c-.1.2-.1.5-.2.7l-1.8 8.4 1.9-8.9.1-.2z"/><path class="jquery" d="M139.4 11.7l-.2-.9-.2-.8-.1-.4c-.4-1.6-1.6-2.5-4.2-2.5h-12c-.3 0-.5.2-.6.5l-.2.9-.2 1-.1.3-1.9 8.9L118 27c-.1.2-.1.4 0 .7 0 .1.5.2.8.2h3.8c.2 0 .5 0 .7-.1.1-.1.3-.6.4-.8l.7-3.3.7-3.3.1-.4.8-3.8.7-3.4c.1-.3.3-.4.6-.4h11.9c.2 0 .4-.1.4-.3-.1-.3-.2-.3-.2-.4z"/><path class="jquery" d="M154.8 3.9H150c-.3 0-.5.2-.7.4l-8.4 12.4c-.1.2-.3.2-.4-.1l-.6-2.7c-.1-.3-.3-.4-.6-.4h-5.4c-.2 0-.3.1-.4.3v.1l2.4 8.5c.1.3.1.6 0 .9l-1.1 4.1c-.1.2 0 .4.2.4h5.5c.3 0 .5-.2.6-.4l1.1-4.1c.1-.3.2-.6.4-.8l13.7-18.2c.2-.2.1-.4-.2-.4h-1.3zM111.6 14.6c0 .3-.3.5-.5.5h-6.9c-.2 0-.3-.1-.3-.3v-.1-.1c.7-1.7 2-2.9 4.5-2.9 2.9 0 3.4 1.4 3.2 2.9zm-2-7.9c-8.8 0-10.9 5.4-12.1 10.8-1.2 5.5-1.1 10.7 8.1 10.7h8.4c.3 0 .5-.2.5-.5l.4-1.8.1-.4.4-2.2c0-.2-.1-.4-.3-.4H106.8c-3.3 0-4.2-.9-3.9-3.4h13.2c.2 0 .4-.1.5-.3v-.1c1.9-7.5 1.4-12.4-7-12.4zM67.9 14.6l-.2.4-1 3.5-1 3.5c-.1.3-.3.4-.6.4h-5.2c-4 0-5-3.1-4-7.7 1-4.7 2.9-7.6 6.8-7.9 5.4-.3 6.5 3.4 5.2 7.8zm3.6 7.6s2.5-6 3-9.5C75.3 8 72.9 1.3 63.9 1.3c-8.9 0-12.8 6.4-14.3 13.4-1.4 7.1.5 13.3 9.4 13.3h13.6c.3 0 .5-.2.6-.4l1.1-4.4c.1-.2 0-.4-.2-.4H71.8c-.2 0-.3-.1-.3-.3-.1-.2-.1-.2 0-.3zM3.2 10.4C.7 13.9 1 18.5 2.9 22.3c0 .1.1.2.1.3l.1.2s0 .1.1.1l.1.1.2.3.1.2c.1.1.1.2.2.3l.1.2c.1.1.2.3.3.4l.1.1.3.4v.1l.3.3.1.1.4.4c.1.1.2.3.4.4l.1.1.3.3.1.1c.1.1.3.2.4.4l.1.1c.1.1.2.2.4.3l.1.1.3.2.2.1.2.2.1.1c.1.1.2.1.3.2l.1.1c.2.1.3.2.5.3l.1.1c.1.1.3.1.4.2.1 0 .1.1.2.1l.3.1h.1l.1.1c.1.1.3.1.4.2h.1c.2.1.3.1.5.2h.1c.2.1.3.1.5.2h.1c.2.1.4.1.5.2h.1c.2.1.4.1.6.2 11.9 2.2 15.4-7.2 15.4-7.2-2.9 3.8-8 4.8-13 3.7-.2 0-.4-.1-.5-.2h-.1c-.2-.1-.3-.1-.5-.2h-.1c-.2-.1-.3-.1-.5-.2l-.1-.1-.5-.2h-.6l-.3-.2-.2-.1c-.1-.1-.3-.1-.4-.2l-.1-.1c-.2-.1-.3-.2-.5-.3l-.2-.1-.4-.2-.1-.1-.3-.2-.2-.1c-.1-.1-.2-.2-.3-.2l-.1-.2c-.1-.1-.3-.2-.4-.3-.1-.1-.3-.2-.4-.4l-.1-.1-.3-.3-.1-.1c-.1-.1-.2-.3-.4-.4-.1-.1-.2-.3-.4-.4l-.1-.1-.3-.3-.1-.1c-.1-.1-.2-.3-.3-.4-2.7-3.7-3.7-8.8-1.5-13l-1.9 2.3z"/><path class="jquery" d="M10.9 7.4c-1.8 2.6-1.7 6-.3 8.7.2.5.5.9.8 1.3.3.4.6.8.9 1.1l.4.4.1.1.4.4c.2.1.3.3.5.4l.1.1c.2.1.3.2.5.4.1.1.2.1.2.2s.1.1.1.1c.1.1.2.2.4.2h.1l.3.2.1.1c.1 0 .2.1.2.1.2.1.3.2.5.2h.1l.4.2.2.1c.1 0 .2.1.4.1l.2.1c.2.1.3.1.5.2 9.2 1.6 11.4-5.6 11.4-5.6-1.9 2.8-5.6 4.1-9.6 3.1-.2 0-.3-.1-.5-.2l-.3-.1-.4-.1-.2-.1-.3-.1H18c-.2-.1-.3-.1-.5-.2-.1 0-.2-.1-.2-.1l-.1-.1-.3-.2h-.1c-.1-.1-.2-.2-.4-.2l-.1-.2-.2-.2c-.2-.1-.3-.2-.5-.4l-.1-.1c-1.8-1.4-3.1-3.2-3.8-5.4-.7-2.2-.5-4.7.7-6.7l-1.5 2.2z"/><path class="jquery" d="M17.3 5.2c-1 1.5-1.2 3.5-.4 5.2.8 1.8 2.3 3.2 4.2 3.9l.2.1h.1c.1 0 .2.1.3.1 5.1 1 6.5-2.6 6.8-3.1-1.2 1.7-3.2 2.2-5.7 1.6-.2-.1-.4-.1-.6-.2-.2-.1-.5-.2-.7-.3-.4-.2-.9-.5-1.3-.8-2.3-1.7-3.6-4.9-2.2-7.6l-.7 1.1z"/></svg>
