<svg xmlns="http://www.w3.org/2000/svg" viewBox="0 0 94.51 65"><defs><style>.laravel{fill:none;stroke:black;stroke-miterlimit:10;}</style></defs><path class="laravel" d="M102.41,37.52c-.62-.7-9.18-11.41-10.68-13.22s-2.25-1.49-3.17-1.36-11.76,2-13,2.16-2,.72-1.27,1.8S82.07,38,83.65,40.18L55.35,47,32.82,9.34C31.93,8,31.74,7.54,29.7,7.65S12,9,10.92,9.14s-2.33.58-1.22,3.21S28.54,53.2,29,54.31a3.8,3.8,0,0,0,4.79,2.19c3.08-.75,13.78-3.54,19.62-5.07C56.53,57,62.83,68.36,64,70c1.55,2.18,2.63,1.82,5,1.08,1.87-.57,29.16-10.38,30.39-10.88s2-.86,1.15-2.1c-.61-.91-7.81-10.55-11.58-15.61,2.58-.68,11.77-3.12,12.75-3.4,1.15-.29,1.32-.85.69-1.55ZM51,48c-.33.07-16.18,3.87-17,4.06s-.85.1-1-.19S14.12,13,13.86,12.47s-.25-.87,0-.87,15-1.31,15.49-1.34.46.09.65.41c0,0,20.78,35.85,21.13,36.48S51.29,48,51,48Zm44.71,8.39c.25.39.51.65-.29.93S68.53,66.43,68,66.65s-.9.29-1.55-.65-9.11-15.61-9.11-15.61L85,43.22c.69-.22.9-.37,1.34.32S95.41,56,95.66,56.43Zm1.77-19.6c-.62.14-10.76,2.65-10.76,2.65L78.39,28.11c-.23-.33-.42-.65.16-.73s10-1.78,10.42-1.87.79-.22,1.31.5,7.69,9.79,8,10.14-.2.54-.81.68Z" transform="translate(-8.76 -7.13)"/></svg>
