<svg xmlns="http://www.w3.org/2000/svg" viewBox="0 0 93.5 64.3"><path d="M91.7 30.1c-.6-.7-8.9-11.1-10.3-12.8s-2.2-1.4-3.1-1.3c-.9.1-11.4 1.9-12.6 2.1s-1.9.7-1.2 1.7 7.5 10.8 9.1 12.9l-27.4 6.6L24.3 2.8c-.9-1.3-1-1.7-3-1.6S4.1 2.5 3.1 2.6s-2.3.6-1.2 3.1 18.2 39.6 18.7 40.6c.7 1.8 2.8 2.8 4.6 2.1 3-.7 13.3-3.4 19-4.9 3 5.4 9.1 16.4 10.3 18 1.5 2.1 2.5 1.8 4.8 1 1.8-.6 28.2-10.1 29.4-10.5 1.2-.5 1.9-.8 1.1-2-.6-.9-7.6-10.2-11.2-15.1 2.5-.7 11.4-3 12.3-3.3 1.2-.3 1.4-.8.8-1.5zM41.9 40.3c-.3.1-15.7 3.7-16.5 3.9-.8.2-.8.1-1-.2-.1-.3-18.2-37.6-18.5-38.2-.2-.5-.2-.8 0-.8s14.5-1.3 15-1.3.4.1.6.4c0 0 20.1 34.7 20.5 35.3.4.6.2.9-.1.9zm43.3 8.1c.2.4.5.6-.3.9-.8.3-26 8.8-26.6 9-.5.2-.9.3-1.5-.6-.6-.9-8.8-15.1-8.8-15.1l26.8-6.9c.7-.2.9-.4 1.3.3.4.6 8.8 12 9.1 12.4zm1.7-19c-.6.1-10.4 2.6-10.4 2.6l-8.1-11c-.2-.3-.4-.6.2-.7.6-.1 9.7-1.7 10.1-1.8.4-.1.8-.2 1.3.5s7.4 9.5 7.7 9.8c.3.3-.2.5-.8.6z" fill="none" stroke="#000" stroke-miterlimit="10"/></svg>
