<svg xmlns="http://www.w3.org/2000/svg" viewBox="0 0 125.2 65.4"><style>.mysql{fill:none;stroke:#000;stroke-linecap:round;stroke-linejoin:round;stroke-miterlimit:10}</style><path class="mysql" d="M2.9 58.2h3.9V42.5L13 56.1c.7 1.6 1.7 2.2 3.6 2.2s2.9-.6 3.6-2.2l6.1-13.6v15.6h4V42.5c0-1.5-.6-2.2-1.9-2.6-3-.9-5-.1-5.9 1.9l-6 13.5-5.8-13.5c-.9-2-2.9-2.8-5.9-1.9C3.6 40.3 3 41 3 42.6l-.1 15.6zM33.6 45.5h4V54c0 .5.1 1.6 2.3 1.6h8.6V45.4h4v14c0 3.5-4.3 4.2-6.3 4.2H33.7V61h12.5c2.5-.3 2.2-1.5 2.2-2v-1H40c-3.9 0-6.4-1.8-6.5-3.7.1-.2.2-8.8.1-8.8zM118.8 35.5c-2-.1-4 .1-5.9.8-.5.2-1.2.2-1.2.8.2.2.3.6.5 1 .4.7.9 1.3 1.6 1.8.6.5 1.3 1 1.9 1.4 1.2.7 2.5 1.2 3.7 1.9.7.4 1.4 1 2 1.4.3.2.6.6 1 .8v-.1c-.2-.3-.3-.7-.5-1-.2-.3-.6-.6-.9-.9-.9-1.2-1.9-2.2-3.2-3.1-1-.7-3.1-1.6-3.5-2.7l-.1-.1c.7-.1 1.4-.3 2.1-.5 1-.3 2-.2 3-.5.5-.1 1-.3 1.5-.4V36c-.5-.5-.9-1.3-1.5-1.8-1.6-1.4-3.2-2.6-5-3.7-.9-.6-2.2-1-3.2-1.5-.4-.2-1-.3-1.2-.6-.5-.7-.9-1.5-1.2-2.3-.9-1.7-1.7-3.5-2.5-5.3-.4-1.2-1-2.3-1.5-3.5C101.6 12.2 98.2 9 92.9 6c-1.2-.6-2.5-1-3.9-1.2-.8 0-1.5-.1-2.3-.1-.5-.3-1-.7-1.4-1.1-1.7-1.1-6.2-3.5-7.5-.3-.8 2 1.2 3.9 1.9 4.9.6.7 1.1 1.5 1.5 2.3.2.5.3 1.1.5 1.6.4 1.4 1 2.7 1.6 4.1.3.7.7 1.3 1.1 1.9.2.3.7.5.8 1-.4.6-.5 1.5-.7 2.3-1.1 3.4-.7 7.7.9 10.2.5.8 1.6 2.4 3.2 1.8 1.4-.5 1.1-2.3 1.5-3.8.1-.4 0-.6.2-.8v.1c.4.8.8 1.7 1.2 2.5 1.1 1.6 2.4 2.9 3.9 4.1.7.5 1.3 1.5 2.2 1.8V37h-.1c-.2-.2-.4-.4-.7-.6-.6-.6-1.1-1.2-1.6-1.8-1.1-1.8-2.2-3.7-3.2-5.6-.5-.9-.9-2-1.3-2.9-.2-.4-.2-.9-.5-1.1-.6.6-1 1.3-1.5 2-.6 1.3-.6 2.9-.8 4.6-.1 0-.1 0-.1.1-1-.2-1.3-1.2-1.7-2.1-.9-2.6-1-5.4-.3-8.1.2-.6 1.1-2.6.8-3.2-.2-.6-.8-.9-1.1-1.4-.4-.6-.8-1.3-1.1-1.9-.7-1.7-1.1-3.6-1.9-5.3-.4-.8-.9-1.6-1.5-2.3-.6-.7-1.2-1.5-1.7-2.3-.1-.3-.4-.9-.1-1.2 0-.2.2-.4.4-.4.4-.3 1.5.1 1.9.3 1 .4 2.1.9 3 1.5.4.3.9.9 1.4 1h.6c1 .2 2 .1 3 .3 1.5.5 3 1.2 4.4 2.1 4 2.6 7.3 6.1 9.5 10.4.4.7.5 1.4.8 2 .6 1.5 1.4 3 2 4.5.6 1.4 1.3 2.8 2.2 4.1.5.6 2.3 1 3.1 1.3.7.2 1.4.5 2.1.8 1 .6 2 1.4 3 2 .5.3 2.1 1.1 2.2 1.7z"/><path class="mysql" d="M87.9 9.2c-.4 0-.8 0-1.2.2v.1h.1c.3.4.6.9 1 1.2.2.5.5 1 .7 1.5l.1-.1c.5-.4.7-.9.6-1.5-.1-.2-.3-.4-.4-.6-.3-.4-.7-.6-.9-.8zM55.5 58.2h11.4c1.3 0 2.5-.2 3.6-.8 1.7-.8 2.5-1.8 2.5-3.2v-2.9c0-1.1-.9-2.2-2.8-2.9-1.1-.4-2.2-.6-3.4-.6H62c-1.6 0-2.4-.5-2.6-1.5V44v-.3c.2-.8.6-1 2-1.2H73v-2.6H62.2c-1.1-.1-2.2.1-3.2.3-2.3.7-3.4 1.9-3.4 3.9v2.3c0 1.8 2 3.3 5.4 3.7h5.6c1.2.1 1.8.3 2.2.8.2.2.3.5.3.7V54c0 .4-.2.7-.5.9-.5.4-1.1.5-1.7.5H55.5v2.8zM97.8 53.6c0 2.7 2 4.2 6.1 4.5.4 0 .8.1 1.2.1h10.3v-2.6H105c-2.3 0-3.2-.6-3.2-2V39.9h-4v13.7zM75.6 53.7v-9.4c0-2.4 1.7-3.9 5-4.3.4 0 .7-.1 1.1-.1h7.5c.4 0 .7 0 1.1.1 3.3.5 5 1.9 5 4.3v9.4c0 1.9-.7 3-2.3 3.7l3.9 3.5h-4.6L89.1 58l-3.2.2h-4.2c-.8 0-1.6-.1-2.3-.3-2.5-.7-3.8-2.1-3.8-4.2zm4.3-.2c0 .1 0 .3.1.4.2 1.1 1.2 1.7 2.8 1.7h3.6l-3.3-3h4.6l2.9 2.6c.7-.3 1.1-1 1-1.7v-9-.4c-.2-1-1.2-1.6-2.8-1.6h-6c-1.8 0-2.9.8-2.9 2v9zM117.1 58.2h.6V56h.8v-.5h-2.1v.5h.8l-.1 2.2zm4.4 0h.6v-2.7h-.8l-.7 1.8-.7-1.8h-.8v2.7h.5v-2l.8 2h.4l.8-2-.1 2z"/></svg>
