<svg xmlns="http://www.w3.org/2000/svg" viewBox="0 0 176.75 92.26"><defs><style>.mysql{fill:none;stroke:black;stroke-miterlimit:10;fill-rule:evenodd;}</style></defs><path class="mysql" d="M631.5,407.22h5.8v-23l9.06,20c1,2.41,2.5,3.3,5.36,3.3s4.23-.89,5.31-3.3l9-20v23h5.84v-23c0-2.23-.89-3.3-2.76-3.88-4.42-1.34-7.37-.18-8.7,2.81L651.54,403,643,383.17c-1.29-3-4.28-4.15-8.74-2.81-1.83.58-2.73,1.65-2.73,3.88v23Z" transform="translate(-631 -323.58)"/><path class="mysql" d="M676.7,388.52h5.85v12.63c0,.71.22,2.32,3.39,2.36,1.65.05,12.58,0,12.67,0V388.43h5.84v20.66c0,5.09-6.29,6.2-9.23,6.25H676.84v-3.89h18.42c3.75-.4,3.3-2.27,3.3-2.9V407H686.2c-5.75-.05-9.45-2.59-9.5-5.49,0-.27.14-12.94,0-13Z" transform="translate(-631 -323.58)"/><path class="mysql" d="M802.08,373.89a20.52,20.52,0,0,0-8.66,1.25c-.67.26-1.74.26-1.83,1.11.36.36.4.94.72,1.43a10.25,10.25,0,0,0,2.32,2.72c.93.71,1.87,1.43,2.85,2.05,1.74,1.07,3.7,1.7,5.4,2.77,1,.62,2,1.43,2.94,2.1.5.35.81.93,1.43,1.16v-.14c-.31-.4-.4-1-.71-1.43s-.89-.84-1.34-1.29a21.11,21.11,0,0,0-4.64-4.51c-1.43-1-4.55-2.32-5.13-4l-.09-.09a17.19,17.19,0,0,0,3.08-.71c1.51-.4,2.9-.31,4.46-.71.71-.18,1.43-.41,2.14-.63v-.4c-.8-.8-1.38-1.87-2.23-2.63a59.39,59.39,0,0,0-7.36-5.49c-1.38-.89-3.17-1.47-4.64-2.23-.54-.27-1.43-.4-1.74-.85a17.57,17.57,0,0,1-1.83-3.43c-1.3-2.46-2.54-5.18-3.66-7.77a44.85,44.85,0,0,0-2.28-5.08c-4.59-7.59-9.59-12.18-17.26-16.69a21.37,21.37,0,0,0-5.71-1.83c-1.12,0-2.23-.13-3.35-.18a17.56,17.56,0,0,1-2.05-1.56c-2.55-1.61-9.1-5.09-11-.49-1.2,2.9,1.79,5.75,2.81,7.23a21,21,0,0,1,2.28,3.34c.31.76.4,1.56.71,2.37a56.53,56.53,0,0,0,2.32,6,21.88,21.88,0,0,0,1.65,2.76c.36.49,1,.72,1.12,1.52-.63.89-.67,2.23-1,3.35-1.6,5-1,11.28,1.3,15,.71,1.11,2.41,3.57,4.68,2.63,2-.8,1.56-3.35,2.14-5.58.14-.53.05-.89.32-1.25v.09c.62,1.25,1.24,2.46,1.82,3.71a26,26,0,0,0,5.8,6c1.08.8,1.92,2.18,3.26,2.67V376H771a5.1,5.1,0,0,0-1-.89,21.4,21.4,0,0,1-2.32-2.68,57,57,0,0,1-5-8.12c-.71-1.38-1.34-2.9-1.92-4.28-.27-.54-.27-1.34-.71-1.61a16.79,16.79,0,0,0-2.14,3c-.85,1.92-.94,4.29-1.25,6.74-.18,0-.09,0-.18.09-1.43-.36-1.92-1.83-2.46-3.08a19.28,19.28,0,0,1-.4-11.91c.31-.94,1.65-3.88,1.12-4.78-.27-.84-1.16-1.33-1.65-2a17.9,17.9,0,0,1-1.61-2.86c-1.07-2.5-1.61-5.26-2.77-7.76a23.2,23.2,0,0,0-2.23-3.44A22.29,22.29,0,0,1,744,329c-.22-.49-.54-1.29-.18-1.83a.72.72,0,0,1,.63-.58c.58-.49,2.23.14,2.81.4a23.06,23.06,0,0,1,4.41,2.23c.63.45,1.3,1.3,2.1,1.52h.94c1.43.31,3,.09,4.37.49a28.68,28.68,0,0,1,6.42,3.08,39.58,39.58,0,0,1,13.93,15.26c.53,1,.75,2,1.24,3,.94,2.19,2.1,4.42,3,6.56a29.34,29.34,0,0,0,3.17,6c.67.94,3.34,1.43,4.55,1.92a32.47,32.47,0,0,1,3.08,1.25c1.51.94,3,2,4.46,3,.71.54,2.94,1.65,3.08,2.55Z" transform="translate(-631 -323.58)"/><path class="mysql" d="M756.57,335.11a6.75,6.75,0,0,0-1.83.23v.09h.09a14.91,14.91,0,0,0,1.42,1.83c.36.71.67,1.42,1,2.14l.09-.09a2.53,2.53,0,0,0,.94-2.23,10.21,10.21,0,0,1-.54-.94c-.27-.45-.85-.67-1.2-1Z" transform="translate(-631 -323.58)"/><path class="mysql" d="M708.92,407.22h16.77a12.86,12.86,0,0,0,5.36-1.12c2.54-1.16,3.74-2.72,3.74-4.77V397c0-1.65-1.38-3.21-4.15-4.28a14.43,14.43,0,0,0-4.95-.85h-7.05c-2.36,0-3.48-.71-3.79-2.27a2,2,0,0,1-.05-.54v-2.63a1.77,1.77,0,0,1,.05-.49c.31-1.21.94-1.52,3-1.74H735v-3.88H718.69a15,15,0,0,0-4.73.49c-3.44,1.07-5,2.76-5,5.75V390c0,2.64,3,4.87,8,5.4.53.05,1.11.05,1.69.05h6a3,3,0,0,1,.62,0c1.83.18,2.63.49,3.17,1.16a1.38,1.38,0,0,1,.44,1.07v3.39a2,2,0,0,1-.8,1.39,4.21,4.21,0,0,1-2.5.8c-.22,0-.35,0-.58,0h-16.1v3.89Z" transform="translate(-631 -323.58)"/><path class="mysql" d="M771.11,400.48c0,4,3,6.2,9,6.65.58,0,1.12.09,1.7.09H797v-3.89H781.64c-3.39,0-4.68-.84-4.68-2.9V380.36h-5.85v20.12Z" transform="translate(-631 -323.58)"/><path class="mysql" d="M738.5,400.66V386.83c0-3.53,2.49-5.67,7.36-6.34.53,0,1.07-.09,1.56-.09h11.07c.58,0,1.07.05,1.65.09,4.86.67,7.31,2.81,7.31,6.34v13.83c0,2.85-1,4.37-3.43,5.4l5.71,5.17H763L758.35,407l-4.68.26h-6.25a13.67,13.67,0,0,1-3.39-.44c-3.7-1-5.53-3-5.53-6.2Zm6.29-.32a3.88,3.88,0,0,0,.13.58c.31,1.61,1.83,2.5,4.15,2.5h5.27l-4.82-4.37h6.73l4.24,3.84a2.57,2.57,0,0,0,1.52-2.46V387.18a2.37,2.37,0,0,0,0-.53c-.32-1.52-1.83-2.37-4.11-2.37h-8.79c-2.59,0-4.28,1.12-4.28,2.9v13.16Z" transform="translate(-631 -323.58)"/><path class="mysql" d="M799.62,407.26h.85V404h1.12v-.67h-3.13V404h1.16v3.26Zm6.47,0h.81v-3.93h-1.21l-1,2.68-1.07-2.68h-1.16v3.93h.76v-3h0l1.12,3H805l1.11-3h0v3Z" transform="translate(-631 -323.58)"/></svg>
