<svg xmlns="http://www.w3.org/2000/svg" viewBox="0 0 122.69 65"><defs><style>.php{fill:none;stroke:black;stroke-miterlimit:10;}</style></defs><path class="php" d="M61.24,3.19c32.59,0,57.65,13.73,57.65,28.81S93.81,60.81,61.24,60.81,3.59,47.08,3.59,32,28.67,3.19,61.24,3.19m0-3.19C27.65,0,.4,14.32.4,32S27.65,64,61.24,64s60.85-14.32,60.85-32S94.84,0,61.24,0ZM41.89,29.43c-1.51,7.7-6.81,6.91-13.33,6.91l2.6-13.43c7.23,0,12.13-.78,10.73,6.52Zm-23,20.5h7l1.65-8.52c7.82,0,12.66.57,17.15-3.63C49.66,33.22,51,25.1,47.42,21c-1.84-2.13-4.81-3.18-8.84-3.18H25.14ZM54.23,9.32h6.94l-1.66,8.51c6,0,11.54-.43,14.22,2s1.47,5.89-1.57,21.5h-7C68.05,26.28,68.6,25,67.54,23.88s-3.37-.87-9-.87L55,41.37H48l6.22-32ZM96.42,29.43c-1.52,7.82-7,6.91-13.33,6.91l2.6-13.43c7.27,0,12.14-.78,10.73,6.52Zm-23,20.5h7l1.65-8.52c8.21,0,12.76.48,17.15-3.63,5-4.56,6.26-12.68,2.72-16.75-1.84-2.13-4.81-3.18-8.84-3.18H79.69Z" transform="translate(0.1 0.5)"/></svg>
