<svg xmlns="http://www.w3.org/2000/svg" viewBox="0 0 122.7 65"><path d="M61.3 3.7c32.6 0 57.6 13.7 57.6 28.8s-25 28.8-57.6 28.8S3.7 47.6 3.7 32.5 28.8 3.7 61.3 3.7m0-3.2C27.7.5.5 14.8.5 32.5s27.2 32 60.8 32 60.8-14.3 60.8-32S94.9.5 61.3.5zM42 29.9c-1.5 7.7-6.8 6.9-13.3 6.9l2.6-13.4c7.2 0 12.1-.8 10.7 6.5zM19 50.4h7l1.6-8.5c7.8 0 12.7.6 17.1-3.6 5-4.6 6.3-12.7 2.7-16.8-1.8-2.1-4.8-3.2-8.8-3.2H25.2L19 50.4zM54.3 9.8h6.9l-1.7 8.5c6 0 11.5-.4 14.2 2s1.5 5.9-1.6 21.5h-7c2.9-15.1 3.4-16.3 2.4-17.5s-3.4-.9-9-.9L55 41.8h-7l6.3-32zm42.2 20.1c-1.5 7.8-7 6.9-13.3 6.9l2.6-13.4c7.3 0 12.1-.8 10.7 6.5zm-23 20.5h7l1.7-8.5c8.2 0 12.8.5 17.2-3.6 5-4.6 6.3-12.7 2.7-16.8-1.8-2.1-4.8-3.2-8.8-3.2H79.8l-6.3 32.1z" fill="none" stroke="#000" stroke-miterlimit="10"/></svg>
