<svg xmlns="http://www.w3.org/2000/svg" viewBox="0 0 62.6 64.8"><style>.postgresql{fill:none;stroke:#000;stroke-linecap:round;stroke-linejoin:round;stroke-miterlimit:10}</style><path class="postgresql" d="M50.4 44.2l.7.1c2 .1 4.7-.3 6.3-1.1 3.4-1.6 5.4-4.2 2.1-3.5-7.6 1.6-8.2-1-8.2-1 8.1-12 11.4-27.1 8.5-30.8-7.9-10.2-21.7-5.4-21.9-5.3h-.1c-1.5-.3-3.2-.5-5.1-.5-3.4-.1-6 .9-8 2.4 0 0-24.5-10.1-23.3 12.7.2 4.8 6.9 36.7 14.9 27 2.9-3.5 5.7-6.5 5.7-6.5 1.4.9 3.1 1.4 4.8 1.2l.1-.1c0 .4 0 .9.1 1.4-2.1 2.3-1.5 2.7-5.6 3.5-4.2.9-1.7 2.4-.1 2.8 1.9.5 6.4 1.2 9.4-3.1v.6"/><path class="postgresql" d="M47.5 48.9c.5-4 .1-5.3 2.9-4.7l.7.1c2 .1 4.7-.3 6.3-1.1 3.4-1.6 5.4-4.2 2.1-3.5-7.6 1.6-8.2-1-8.2-1 8.1-12 11.4-27.1 8.5-30.8-7.9-10.2-21.7-5.4-21.9-5.3h-.1c-1.5-.3-3.2-.5-5.1-.5-3.4-.1-6 .9-8 2.4 0 0-24.5-10.1-23.3 12.7.2 4.8 6.9 36.7 14.9 27 2.9-3.5 5.7-6.5 5.7-6.5 1.4.9 3.1 1.4 4.8 1.2l.1-.1c0 .4 0 .9.1 1.4-2.1 2.3-1.5 2.7-5.6 3.5-4.2.9-1.7 2.4-.1 2.8 1.9.5 6.4 1.2 9.4-3.1"/><path class="postgresql" d="M31.1 42c-.2 7.5 0 15.1.8 16.9.7 1.8 2.3 5.4 7.7 4.2 4.5-1 6.2-2.9 6.9-7 .5-3 1.5-11.5 1.7-13.2"/><path class="postgresql" d="M51.2 38.6s.5 2.6 8.2 1c3.3-.7 1.3 1.9-2.1 3.5-2.8 1.3-9 1.6-9.1-.2-.3-4.6 3.3-3.2 3-4.3-.2-1-1.8-2.1-2.9-4.6-.9-2.2-12.6-19.2 3.2-16.7.6-.1-4.1-15-18.9-15.3-14.7-.2-14.2 18.2-14.2 18.2M27 40.1c-2.1 2.3-1.5 2.7-5.6 3.5-4.2.9-1.7 2.4-.1 2.8 1.9.5 6.4 1.2 9.4-3.1.9-1.3 0-3.4-1.3-3.9-.5-.1-1.3-.4-2.4.7z"/><path class="postgresql" d="M26.9 40.1c-.2-1.3.4-3 1.1-4.8 1-2.8 3.5-5.7 1.5-14.6-1.4-6.7-11.1-1.4-11.1-.5s.4 4.6-.2 8.9c-.8 5.6 3.6 10.3 8.6 9.8"/><path class="postgresql" d="M24.6 20c0 .3.6 1.1 1.4 1.2.8.1 1.5-.5 1.5-.8 0-.3-.6-.7-1.4-.8-.8-.1-1.5.1-1.5.4zM48.7 19.4c0 .3-.6 1.1-1.4 1.2-.8.1-1.5-.5-1.5-.8 0-.3.6-.7 1.4-.8.8-.1 1.5.1 1.5.4zM51.6 17.2c.1 2.4-.5 4.1-.6 6.7-.1 3.7 1.8 8.1-1.1 12.3"/></svg>
