<svg xmlns="http://www.w3.org/2000/svg" viewBox="0 0 65 48.6"><defs><style>.sass{fill:none;stroke:black;stroke-miterlimit:10;}</style></defs><path class="sass" d="M59.72,29.37A11.74,11.74,0,0,0,54,30.74a11.51,11.51,0,0,1-1.27-3,8.21,8.21,0,0,1-.09-2.55,27.46,27.46,0,0,1,.77-2.73c0-.09-.17-.6-1.45-.6a4.58,4.58,0,0,0-2.56.51c-.08.34-.34,1.11-.51,1.88-.17,1.19-2.56,5.28-3.92,7.41A9,9,0,0,1,44,29.46,8.28,8.28,0,0,1,44,26.9c.17-1.11.76-2.56.76-2.73s-.17-.59-1.45-.59a4.45,4.45,0,0,0-2.55.51c-.09.34-.26,1.11-.52,1.87S36.87,33.55,36,35.42c-.43.94-.77,1.62-1,2.22-.25.43,0,0,0,.09a1.89,1.89,0,0,1-.34.59h0c-.17.26-.34.6-.42.6a4.11,4.11,0,0,1,0-2c.42-2.39,1.53-6.14,1.53-6.22s.17-.77-.77-1.11-1.27.17-1.27.17-.17.17-.17.17,1-4.18-1.88-4.18c-1.79,0-4.35,2-5.63,3.84-.85.42-2.47,1.36-4.26,2.38-.77.35-1.36.77-2,1.11L19.57,33c-3.5-3.83-10.06-6.48-9.81-11.51.09-1.79.77-6.73,12.62-12.61C32.1,4.22,39.94,5.5,41.3,8.57c1.88,4.18-4.17,12.11-14.23,13.13-3.84.43-5.89-1.11-6.31-1.62s-.6-.6-.85-.43-.09.77,0,1a5.61,5.61,0,0,0,3.66,2.9c1.79.59,6.31.93,11.77-1.2,6-2.38,10.91-8.95,9.54-14.4C43.35,2.26,34.14.47,25.28,3.54a45.29,45.29,0,0,0-15,8.53C5.5,16.59,4.65,20.51,5,22.13,6.27,28,14.28,31.84,17.52,34.66c-.17.08-.26.17-.43.25-1.62.86-7.67,4-9.29,7.42-1.7,3.84.26,6.65,1.62,7,4.18,1.19,8.36-.94,10.74-4.35a11.11,11.11,0,0,0,1-9.89V35l1.28-.77c.86-.43,1.62-.94,2.39-1.28A15.43,15.43,0,0,0,24,37.13a9.16,9.16,0,0,0,1.87,6.14,2.39,2.39,0,0,0,1.54.42c1.36,0,2-1.1,2.64-2.47.85-1.62,1.62-3.49,1.62-3.49s-.94,5.2,1.62,5.2c.94,0,1.88-1.2,2.3-1.79h0l.09-.09c.08-.08.08-.17.17-.26h0c.34-.59,1.19-2,2.47-4.51,1.62-3.16,3.15-7.08,3.15-7.08s.17,1,.6,2.56a31.83,31.83,0,0,0,1.36,3c-.34.51-.59.85-.59.85h0a10.12,10.12,0,0,1-1,1.28,32.86,32.86,0,0,0-3,3.75A1,1,0,0,0,39.09,42a2.8,2.8,0,0,0,1.53.25A8.36,8.36,0,0,0,43,41.73a4.63,4.63,0,0,0,2-1.11,4.35,4.35,0,0,0,1.87-4,6.71,6.71,0,0,0-.76-2.82.79.79,0,0,1,.34-.42,51.18,51.18,0,0,0,3.41-6s.17,1,.59,2.56c.26.85.77,1.7,1.11,2.56a11,11,0,0,0-3.32,4.34c-.77,2.05-.17,3.07.94,3.24a3.12,3.12,0,0,0,1.7-.34,6.64,6.64,0,0,0,2.22-1.11c1.28-.93,2.47-2.21,2.38-3.92a7.81,7.81,0,0,0-.51-2.38,13.23,13.23,0,0,1,6.14-.77c5.54.6,6.65,4.09,6.48,5.54a3.45,3.45,0,0,1-1.71,2.47c-.34.26-.51.34-.42.43.08.25.17.25.51.17a4.36,4.36,0,0,0,3-3.84c-.25-3.32-3.49-7.07-9.2-7ZM17.18,43.69c-1.79,2-4.35,2.73-5.46,2.05S11,42.07,13.26,40a28.75,28.75,0,0,1,4.26-3.16,8.94,8.94,0,0,0,1.11-.76l.08-.09c.09-.08.17-.08.26-.17a8,8,0,0,1-1.79,7.84Zm13.3-9c-.6,1.53-2,5.54-2.82,5.37s-1.1-3.16-.17-6.14a12,12,0,0,1,2.22-4c1-1.1,2.05-1.45,2.39-1S30.82,33.63,30.48,34.66Zm11,5.28c-.25.17-.51.26-.59.17s.08-.25.08-.25a24.59,24.59,0,0,0,1.88-2.22c.25-.34.76-.85,1.11-1.36v.17c-.09,1.79-1.71,2.9-2.48,3.49Zm8.53-2c-.17-.17-.17-.6.42-2a9,9,0,0,1,1.88-2.47,5.33,5.33,0,0,1,.17,1.11A3.3,3.3,0,0,1,50,37.9Z" transform="translate(-4.42 -1.56)"/></svg>
