<svg xmlns="http://www.w3.org/2000/svg" viewBox="0 0 86.2 64.5"><path d="M72.8 36.8c-2.6 0-5.2.6-7.4 1.8-.7-1.2-1.3-2.5-1.7-3.9-.2-1.1-.3-2.2-.1-3.3.3-1.2.6-2.4 1-3.6 0-.1-.2-.8-1.9-.8-1.2-.1-2.3.1-3.3.7-.1.4-.4 1.4-.7 2.4-.2 1.5-3.3 6.9-5.1 9.6-.5-.9-1-1.9-1.3-2.9-.2-1.1-.2-2.2 0-3.3.2-1.4 1-3.3 1-3.6 0-.2-.2-.8-1.9-.8-1.1-.1-2.3.1-3.3.7-.1.4-.3 1.4-.7 2.4-.3 1-4.4 9.9-5.5 12.3-.6 1.2-1 2.1-1.3 2.9-.3.6 0 0 0 .1-.1.3-.2.5-.4.8-.2.3-.4.8-.5.8-.2-.9-.2-1.7 0-2.6.5-3.1 2-8 2-8.1 0-.1.2-1-1-1.4-1.2-.4-1.7.2-1.7.2l-.2.2s1.3-5.4-2.4-5.4c-2.3 0-5.7 2.6-7.3 5-1.1.5-3.2 1.8-5.5 3.1-1 .5-1.8 1-2.6 1.4l-.3-.1c-4.6-5-13.1-8.4-12.8-15 .1-2.3 1-8.8 16.4-16.4C36.8 4.1 47 5.7 48.8 9.7c2.4 5.4-5.4 15.8-18.5 17.1-5 .6-7.7-1.4-8.2-2.1-.5-.7-.8-.8-1.1-.6-.3.2-.1 1 0 1.3 1 1.9 2.7 3.3 4.8 3.8 2.3.8 8.2 1.2 15.3-1.6 7.8-3 14.2-11.6 12.4-18.7-2-7.4-14-9.7-25.5-5.7-7.2 2.4-13.8 6.2-19.6 11.1-6.2 5.9-7.3 11-6.9 13.1C3.2 35 13.6 40 17.8 43.7c-.2.1-.3.2-.6.3-2.1 1.1-10 5.2-12.1 9.7-2.2 5 .3 8.7 2.1 9.1 5.4 1.5 10.9-1.2 14-5.7 2.4-3.8 2.9-8.6 1.3-12.9v-.1l1.7-1c1.1-.6 2.1-1.2 3.1-1.7-.6 1.8-1 3.6-1.1 5.4-.2 2.9.7 5.7 2.4 8 .6.4 1.3.6 2 .5 1.8 0 2.6-1.4 3.4-3.2 1.1-2.1 2.1-4.5 2.1-4.5s-1.2 6.8 2.1 6.8c1.2 0 2.4-1.6 3-2.3l.1-.1c.1-.1.1-.2.2-.3.4-.8 1.5-2.6 3.2-5.9 2.1-4.1 4.1-9.2 4.1-9.2s.2 1.3.8 3.3c.5 1.3 1.1 2.6 1.8 3.9-.4.7-.8 1.1-.8 1.1-.4.6-.8 1.1-1.3 1.7-1.4 1.5-2.7 3.2-3.9 4.9-.4.6-.2 1.4.3 1.8.6.3 1.3.4 2 .3 1.1-.1 2.1-.3 3.1-.7 1-.3 1.9-.8 2.6-1.4 1.7-1.2 2.6-3.2 2.4-5.2-.1-1.3-.4-2.5-1-3.7.1-.2.2-.4.4-.5 1.7-2.5 3.1-5.1 4.4-7.8 0 0 .2 1.3.8 3.3.3 1.1 1 2.2 1.4 3.3-1.9 1.5-3.4 3.4-4.3 5.7-1 2.7-.2 4 1.2 4.2.8.1 1.5-.1 2.2-.4 1-.3 2-.8 2.9-1.4 1.7-1.2 3.2-2.9 3.1-5.1-.1-1.1-.3-2.1-.7-3.1 2.5-1 5.3-1.3 8-1 7.2.8 8.7 5.3 8.4 7.2-.2 1.4-1 2.5-2.2 3.2-.4.3-.7.4-.5.6.1.3.2.3.7.2 2.2-.7 3.7-2.7 3.9-5 0-4.4-4.2-9.3-11.7-9.2zM17.4 55.5c-2.3 2.6-5.7 3.6-7.1 2.7s-.9-4.8 2-7.5c1.7-1.5 3.6-2.9 5.5-4.1.5-.3 1-.6 1.4-1l.1-.1c.1-.1.2-.1.3-.2 1.2 3.5.4 7.4-2.2 10.2zm17.3-11.8c-.8 2-2.6 7.2-3.7 7-1.1-.2-1.4-4.1-.2-8 .6-1.9 1.6-3.7 2.9-5.2 1.3-1.4 2.7-1.9 3.1-1.3.5.6-1.6 6.2-2.1 7.5zM49 50.6c-.3.2-.7.3-.8.2-.1-.1.1-.3.1-.3.9-.9 1.7-1.9 2.4-2.9.3-.4 1-1.1 1.4-1.8v.2c.1 2.4-2 3.8-3.1 4.6zM60.2 48c-.2-.2-.2-.8.5-2.6.6-1.2 1.5-2.3 2.4-3.2.1.5.2 1 .2 1.4.1 2-1.2 3.8-3.1 4.4z" fill="none" stroke="#000" stroke-miterlimit="10"/></svg>
