<svg xmlns="http://www.w3.org/2000/svg" viewBox="0 0 256.57 291.62"><defs><style>.shopify{fill:none;stroke:black;stroke-miterlimit:10;}</style></defs><path class="shopify" d="M223.77,57.34A2.81,2.81,0,0,0,221.24,55c-1.06-.09-23.39-1.74-23.39-1.74l-17.2-17.1c-1.71-1.7-5-1.18-6.32-.8-.2,0-3.39,1-8.68,2.68-5.18-14.91-14.32-28.61-30.41-28.61-.44,0-.9,0-1.36.05C129.31,3.41,123.64.78,118.75.78c-37.46,0-55.36,46.83-61,70.63-14.55,4.52-24.9,7.72-26.22,8.14C23.43,82.1,23.17,82.35,22.1,90,21.3,95.81,0,260.24,0,260.24l165.67,31,89.78-19.42S224,58.8,223.77,57.34ZM156.49,40.85l-14,4.34c0-1,0-2,0-3,0-9.26-1.29-16.72-3.35-22.63,8.29,1,13.81,10.47,17.36,21.32ZM128.85,21.36c2.31,5.78,3.8,14.06,3.8,25.24,0,.57,0,1.1,0,1.63l-28.95,9c5.58-21.51,16-31.9,25.16-35.83ZM117.72,10.83a8.49,8.49,0,0,1,4.81,1.62c-12,5.65-24.88,19.88-30.32,48.3L69.33,67.83c6.36-21.67,21.48-57,48.39-57Z" transform="translate(0.52 -0.28)"/><path class="shopify" d="M221.24,55c-1.06-.09-23.39-1.74-23.39-1.74l-17.2-17.1a4.3,4.3,0,0,0-2.4-1.1L165.72,291.27l89.77-19.41S224,58.8,223.77,57.34A2.81,2.81,0,0,0,221.24,55" transform="translate(0.52 -0.28)"/><path class="shopify" d="M135.24,104.59l-11.07,32.92a50.89,50.89,0,0,0-21.58-5.18c-17.43,0-18.31,10.94-18.31,13.7,0,15,39.2,20.8,39.2,56,0,27.71-17.57,45.56-41.28,45.56-28.44,0-43-17.7-43-17.7l7.62-25.16s14.95,12.84,27.56,12.84A11.13,11.13,0,0,0,86,206.35c0-19.61-32.16-20.49-32.16-52.72,0-27.13,19.47-53.38,58.77-53.38,15.15,0,22.63,4.34,22.63,4.34" transform="translate(0.52 -0.28)"/></svg>
