<svg xmlns="http://www.w3.org/2000/svg" viewBox="0 0 65.1 74"><style>.shopify{fill:none;stroke:#000;stroke-miterlimit:10}</style><path class="shopify" d="M55.8 15.4c-.1-.3-.3-.5-.6-.6-.3 0-5.7-.4-5.7-.4l-4.2-4.1c-.4-.4-1.2-.3-1.5-.2 0 0-.8.2-2.1.7-1.3-3.6-3.5-6.9-7.4-6.9H34c-1.1-1.5-2.5-2.1-3.7-2.1-9.1 0-13.4 11.4-14.8 17.1-3.5 1.1-6 1.9-6.4 2-2 .6-2 .7-2.3 2.5-.2 1.4-5.4 41.3-5.4 41.3l40.2 7.5 21.8-4.7c.1 0-7.5-51.7-7.6-52.1zm-16.3-4l-3.4 1.1v-.7c0-2.2-.3-4.1-.8-5.5 2 .2 3.3 2.5 4.2 5.1zm-6.7-4.7c.6 1.4.9 3.4.9 6.1v.4l-7 2.2c1.3-5.2 3.9-7.8 6.1-8.7zm-2.7-2.6c.4 0 .8.1 1.2.4-2.9 1.4-6 4.8-7.4 11.7L18.4 18c1.5-5.3 5.2-13.9 11.7-13.9z"/><path class="shopify" d="M55.2 14.8c-.3 0-5.7-.4-5.7-.4l-4.2-4.1c-.1-.2-.3-.3-.5-.3l-3 62.2 21.8-4.7S56 15.8 55.9 15.4c-.1-.3-.4-.5-.7-.6M34.3 26.9l-2.7 8c-1.6-.8-3.4-1.2-5.2-1.3-4.2 0-4.4 2.7-4.4 3.3 0 3.6 9.5 5 9.5 13.6 0 6.7-4.3 11.1-10 11.1-6.9 0-10.4-4.3-10.4-4.3l1.8-6.1s3.6 3.1 6.7 3.1c1.5.1 2.8-1.1 2.8-2.6v-.1c0-4.8-7.8-5-7.8-12.8 0-6.6 4.7-13 14.3-13 3.6 0 5.4 1.1 5.4 1.1"/></svg>
