<svg xmlns="http://www.w3.org/2000/svg" viewBox="0 0 250.92 52.13">
    <path d="M9,50.51A27.28,27.28,0,0,1,0,46.3l4-8.79a26.78,26.78,0,0,0,7.7,3.82,29,29,0,0,0,8.93,1.44q5,0,7.35-1.48a4.45,4.45,0,0,0,2.37-3.92,3.77,3.77,0,0,0-1.4-3,10.76,10.76,0,0,0-3.6-1.91q-2.2-.72-5.94-1.58a81.5,81.5,0,0,1-9.43-2.74,15.24,15.24,0,0,1-6.3-4.39A11.82,11.82,0,0,1,1,15.7a14.07,14.07,0,0,1,2.37-8,16,16,0,0,1,7.17-5.65A29.25,29.25,0,0,1,22.25,0a38.65,38.65,0,0,1,9.43,1.15,27.87,27.87,0,0,1,8.06,3.31l-3.6,8.86a28.07,28.07,0,0,0-14-4q-4.91,0-7.24,1.58a4.84,4.84,0,0,0-2.34,4.18A4.08,4.08,0,0,0,15.3,19a42.68,42.68,0,0,0,8.24,2.49A82.56,82.56,0,0,1,33,24.19a15.69,15.69,0,0,1,6.3,4.32,11.6,11.6,0,0,1,2.62,8,13.77,13.77,0,0,1-2.41,7.89A16.26,16.26,0,0,1,32.26,50a29.56,29.56,0,0,1-11.74,2.09A41.29,41.29,0,0,1,9,50.51Z"/>
    <path d="M74.09,49.39A11.56,11.56,0,0,1,70,51.23a20.49,20.49,0,0,1-5.08.61q-6.91,0-10.69-3.53T50.47,37.94V22h-6V13.39h6V4H61.7v9.43h9.65V22H61.7V37.8A5.29,5.29,0,0,0,63,41.58a4.67,4.67,0,0,0,3.57,1.33,7.22,7.22,0,0,0,4.53-1.44Z"/>
    <path d="M116.93,35.06H87.62a9.13,9.13,0,0,0,3.75,5.69,12.31,12.31,0,0,0,7.34,2.09,14.83,14.83,0,0,0,5.36-.9,13,13,0,0,0,4.36-2.84l6,6.48q-5.47,6.26-16,6.26a25.2,25.2,0,0,1-11.59-2.56,18.71,18.71,0,0,1-7.78-7.09A19.54,19.54,0,0,1,76.32,31.9,19.78,19.78,0,0,1,79,21.64a18.89,18.89,0,0,1,7.41-7.13,22.95,22.95,0,0,1,20.85-.11,17.83,17.83,0,0,1,7.23,7A20.86,20.86,0,0,1,117.14,32C117.14,32.18,117.07,33.19,116.93,35.06ZM90.65,22.61a9.18,9.18,0,0,0-3.17,5.9h19.08a9.32,9.32,0,0,0-3.17-5.87,9.49,9.49,0,0,0-6.34-2.19A9.64,9.64,0,0,0,90.65,22.61Z"/>
    <path d="M162.36,12.53,146,51.26h-11.6L118.15,12.53h11.59l10.73,26.35,11.09-26.35Z"/>
    <path d="M203.61,35.06h-29.3a9.16,9.16,0,0,0,3.74,5.69,12.36,12.36,0,0,0,7.35,2.09,14.87,14.87,0,0,0,5.36-.9,13.15,13.15,0,0,0,4.36-2.84l6,6.48q-5.46,6.26-16,6.26a25.2,25.2,0,0,1-11.59-2.56,18.71,18.71,0,0,1-7.78-7.09A19.54,19.54,0,0,1,163,31.9a19.78,19.78,0,0,1,2.7-10.26,18.89,18.89,0,0,1,7.41-7.13A22.95,22.95,0,0,1,194,14.4a17.83,17.83,0,0,1,7.23,7A21,21,0,0,1,203.83,32C203.83,32.18,203.76,33.19,203.61,35.06ZM177.33,22.61a9.21,9.21,0,0,0-3.16,5.9h19.08a9.32,9.32,0,0,0-3.17-5.87,9.49,9.49,0,0,0-6.34-2.19A9.69,9.69,0,0,0,177.33,22.61Z"/>
    <path d="M246.49,16.27q4.42,4.32,4.43,12.82V51.26H239.69V30.82c0-3.07-.68-5.37-2-6.88a7.4,7.4,0,0,0-5.83-2.27,9,9,0,0,0-6.77,2.63c-1.68,1.75-2.52,4.36-2.52,7.81V51.26H211.32V12.53h10.73v4.53a14.85,14.85,0,0,1,5.54-3.78A19.47,19.47,0,0,1,234.86,12Q242.06,12,246.49,16.27Z"/>
</svg>
