<svg xmlns="http://www.w3.org/2000/svg" viewBox="0 0 65 65"><defs><style>.wordpress{fill:none;stroke:black;stroke-miterlimit:10;}</style></defs><path class="wordpress" d="M14.93,28.83,28,64.7a27.43,27.43,0,0,1-13.1-35.87Zm43.6,9.79a14.42,14.42,0,0,0-2.26-7.57c-1.39-2.26-2.7-4.19-2.7-6.44a4.75,4.75,0,0,1,4.61-4.88l.36,0a27.44,27.44,0,0,0-41.48,5.17l1.77,0c2.86,0,7.31-.34,7.31-.34a1.13,1.13,0,0,1,.18,2.25s-1.48.17-3.13.26l10,29.73,6-18L34.93,27.12c-1.48-.09-2.88-.26-2.88-.26a1.13,1.13,0,0,1,.17-2.25s4.53.34,7.23.34c2.86,0,7.31-.34,7.31-.34a1.13,1.13,0,0,1,.18,2.25s-1.48.17-3.13.26l9.92,29.51,2.73-9.15c1.17-3.79,2.07-6.51,2.07-8.86ZM40.48,42.4,32.25,66.34a27.38,27.38,0,0,0,16.86-.44,1.93,1.93,0,0,1-.19-.38ZM64.09,26.83a20.58,20.58,0,0,1,.18,2.82,25.84,25.84,0,0,1-2.09,9.83L53.79,63.73a27.46,27.46,0,0,0,10.3-36.9ZM72,40A32,32,0,1,1,40,8,32,32,0,0,1,72,40Z" transform="translate(-7.5 -7.5)"/></svg>
