<svg xmlns="http://www.w3.org/2000/svg" viewBox="0 0 65 65"><path d="M7.4 21.3l13.1 35.9C7.2 50.7 1.4 34.9 7.4 21.3zM51 31.1c0-2.7-.8-5.3-2.3-7.6-1.4-2.3-2.7-4.2-2.7-6.4-.1-2.6 2-4.8 4.6-4.9h.4C39.9 2 22.5 2.7 12.3 13.9c-1 1.1-1.9 2.3-2.7 3.5h1.8c2.9 0 7.3-.3 7.3-.3.6 0 1.1.5 1.2 1.1 0 .6-.4 1.1-1 1.2 0 0-1.5.2-3.1.3l10 29.7 6-18-4.3-11.7c-1.5-.1-2.9-.3-2.9-.3-.6-.1-1.1-.6-1-1.3.1-.6.6-1 1.1-1 0 0 4.5.3 7.2.3 2.9 0 7.3-.3 7.3-.3.6 0 1.1.5 1.2 1.1 0 .6-.4 1.1-1 1.2 0 0-1.5.2-3.1.3l9.9 29.5L49 40c1.1-3.8 2-6.5 2-8.9zm-18 3.8l-8.2 23.9c5.5 1.6 11.4 1.5 16.9-.4-.1-.1-.1-.2-.2-.4L33 34.9zm23.6-15.6c.1.9.2 1.9.2 2.8 0 3.4-.8 6.7-2.1 9.8l-8.4 24.2c12.9-7.3 17.4-23.7 10.3-36.8zm7.9 13.2c0 17.7-14.3 32-32 32s-32-14.3-32-32 14.3-32 32-32 32 14.3 32 32z" fill="none" stroke="#000" stroke-miterlimit="10"/></svg>
